<svg id="line" height="512" viewBox="0 0 64 64" width="512" xmlns="http://www.w3.org/2000/svg"><g fill="#c4a2fc"><path d="m63 21h-34v34h34zm-11 22h-2.5l-2.7 3.6a1 1 0 0 1 -1.6 0l-2.7-3.6h-2.5a3 3 0 0 1 -3-3v-8a3 3 0 0 1 3-3h12a3 3 0 0 1 3 3v8a3 3 0 0 1 -3 3z"/><path d="m52 31h-12a1 1 0 0 0 -1 1v8a1 1 0 0 0 1 1h3c.856 0 .933.768 3 3.333 2.025-2.513 2.141-3.333 3-3.333h3a1 1 0 0 0 1-1v-8a1 1 0 0 0 -1-1z"/><path d="m63 19v-3a3 3 0 0 0 -3-3h-28a3 3 0 0 0 -3 3v3z"/><path d="m29 57v3a3 3 0 0 0 3 3h28a3 3 0 0 0 3-3v-3z"/></g><path d="m48 1h-44a3 3 0 0 0 -3 2.99v27.91a3 3 0 0 0 3 2.99h5.574l5.86 7.353a2 2 0 0 0 3.566-1.243v-6.11h29a3 3 0 0 0 3-2.99v-27.91a3 3 0 0 0 -3-2.99zm1 30.9a1 1 0 0 1 -1 1h-30a1 1 0 0 0 -1 1v7.1l-6.16-7.73a1 1 0 0 0 -.783-.377h-6.057a1 1 0 0 1 -1-1v-27.903a1 1 0 0 1 1-1h44a1 1 0 0 1 1 1z" fill="#151a6a"/><path d="m42 8.974h-32a1 1 0 1 0 0 1.994h32a1 1 0 1 0 0-1.994z" fill="#151a6a"/><path d="m42 16.948h-32a1 1 0 1 0 0 1.994h32a1 1 0 1 0 0-1.994z" fill="#151a6a"/><path d="m26 24.922h-16a1 1 0 1 0 0 1.994h16a1 1 0 1 0 0-1.994z" fill="#151a6a"/></svg>