<svg id="line" height="512" viewBox="0 0 64 64" width="512" xmlns="http://www.w3.org/2000/svg"><path d="m42 19a21 21 0 1 0 21 21 21.024 21.024 0 0 0 -21-21zm0 31a2.174 2.174 0 1 1 2.174-2.174 2.174 2.174 0 0 1 -2.174 2.174zm6.171-6.575a1 1 0 0 1 -1.414 0 6.735 6.735 0 0 0 -9.514 0 1 1 0 1 1 -1.414-1.414 8.736 8.736 0 0 1 12.342 0 1 1 0 0 1 0 1.414zm3.857-3.857a1 1 0 0 1 -1.414 0 12.181 12.181 0 0 0 -17.227 0 1 1 0 0 1 -1.415-1.414 14.181 14.181 0 0 1 20.056 0 1 1 0 0 1 0 1.414zm3.284-3.64a1 1 0 0 1 -1.415 0 16.843 16.843 0 0 0 -23.795 0 1 1 0 1 1 -1.414-1.414 18.846 18.846 0 0 1 26.624 0 1 1 0 0 1 0 1.414z" fill="#c4a2fc"/><g fill="#151a6a"><path d="m38.791 24.626a5.023 5.023 0 0 0 -4.808-3.626h-19.966a5.021 5.021 0 0 0 -4.808 3.627c-5.19 18.338-5.209 17.796-5.209 18.741a3.636 3.636 0 0 0 3.631 3.632h32.738a3.636 3.636 0 0 0 3.631-3.632c0-.932 0-.326-5.209-18.742zm1.578 20.374h-32.738a1.633 1.633 0 0 1 -1.631-1.632c0-.434-.2.567 5.132-18.192a3.015 3.015 0 0 1 2.885-2.176h19.966a3.013 3.013 0 0 1 2.884 2.176c5.345 18.786 5.133 17.773 5.133 18.192a1.633 1.633 0 0 1 -1.631 1.632z"/><path d="m24 25a9 9 0 1 0 9 9 9.01 9.01 0 0 0 -9-9zm0 16a7 7 0 1 1 7-7 7.008 7.008 0 0 1 -7 7z"/><path d="m24 30a4 4 0 1 0 4 4 4 4 0 0 0 -4-4zm0 6a2 2 0 1 1 2-2 2 2 0 0 1 -2 2z"/><path d="m39.877 3h-31.756c-4.499 0-8.561 5.34-6.621 10.5l1.892 5.046a2.989 2.989 0 0 0 3.758 1.792l8.549-2.85a2.985 2.985 0 0 0 2.012-3.339l-.53-3.149h13.639l-.52 3.149a2.984 2.984 0 0 0 2.01 3.339l8.551 2.852a2.993 2.993 0 0 0 3.758-1.794l1.886-5.046c1.932-5.149-2.113-10.5-6.628-10.5zm4.755 9.8-1.891 5.045a1 1 0 0 1 -1.252.6l-8.552-2.851a.993.993 0 0 1 -.669-1.112l.524-3.151a2 2 0 0 0 -1.972-2.331h-13.639a2 2 0 0 0 -1.973 2.328l.525 3.151a1 1 0 0 1 -.67 1.113l-8.55 2.849a.994.994 0 0 1 -1.253-.6l-1.892-5.041c-1.49-3.972 1.74-7.8 4.753-7.8h31.756c3.017 0 6.245 3.831 4.755 7.8z"/></g></svg>