<svg id="line" height="512" viewBox="0 0 64 64" width="512" xmlns="http://www.w3.org/2000/svg"><g fill="#c4a2fc"><path d="m42 37.5v-9a3.5 3.5 0 0 0 -7 0v9c0 4.627 7 4.634 7 0z"/><path d="m56.5 12a3.5 3.5 0 0 0 -3.5 3.5v17.5c3.065.194 4.912-.555 7 1.026v-18.526a3.5 3.5 0 0 0 -3.5-3.5z"/><path d="m33 37.5v-9a3.5 3.5 0 0 0 -7 0v9c0 4.627 7 4.634 7 0z"/><path d="m51 33v-4.5a3.5 3.5 0 0 0 -7 0v4.684c.927-.33 1.122-.121 7-.184z"/><path d="m34.87 53.317h1.462l.349-1.68h-1.461z"/><path d="m57 35h-12a1 1 0 0 0 -1 1 5 5 0 0 0 5 5h3a1 1 0 0 1 1 1v12a1 1 0 0 1 -2 0v-11h-2a6.992 6.992 0 0 1 -5.658-2.9 5.494 5.494 0 0 1 -9.342.552 5.487 5.487 0 0 1 -8 1.087v16.261a5 5 0 0 0 5 5h24a5 5 0 0 0 5-5v-20a3 3 0 0 0 -3-3zm-17.187 16.637h-1.088l-.35 1.68h.678a1 1 0 0 1 0 2h-1.094l-.569 2.74a1 1 0 0 1 -1.959-.407l.485-2.333h-1.461l-.57 2.74a1 1 0 0 1 -1.959-.407l.485-2.333h-.667a1 1 0 0 1 0-2h1.083l.349-1.68h-.671a1 1 0 0 1 0-2h1.087l.557-2.681a1 1 0 0 1 1.959.407l-.473 2.274h1.465l.557-2.681a1 1 0 0 1 1.959.407l-.473 2.274h.673a1 1 0 0 1 -.003 2zm6.356 6.363a1 1 0 0 1 -2 0v-9.694h-1.286a1 1 0 0 1 0-2h2.286a1 1 0 0 1 1 1z"/></g><path d="m38 18a17 17 0 0 0 -34 0v8a17 17 0 0 0 34 0zm-17-15a15.006 15.006 0 0 1 14.949 14h-7.564a6.919 6.919 0 0 1 -6.456-4.372 1 1 0 0 0 -1.858 0 6.92 6.92 0 0 1 -6.457 4.372h-7.563a15.006 15.006 0 0 1 14.949-14zm0 38a15.017 15.017 0 0 1 -15-15v-7h7.614a8.907 8.907 0 0 0 7.386-3.885 8.908 8.908 0 0 0 7.385 3.885h7.615v7a15.017 15.017 0 0 1 -15 15z" fill="#151a6a"/><path d="m24.717 33.337a4.988 4.988 0 0 1 -7.434 0 1 1 0 1 0 -1.483 1.335 6.986 6.986 0 0 0 10.41 0 1 1 0 1 0 -1.488-1.335z" fill="#151a6a"/><path d="m28 21a4.991 4.991 0 0 0 -4.75 3.517 6.353 6.353 0 0 0 -4.5 0 5 5 0 1 0 .188 2.1 4.378 4.378 0 0 1 4.124 0 4.989 4.989 0 1 0 4.938-5.617zm-14 8a3 3 0 1 1 3-3 3 3 0 0 1 -3 3zm14 0a3 3 0 1 1 3-3 3 3 0 0 1 -3 3z" fill="#151a6a"/></svg>