<svg id="line" height="512" viewBox="0 0 64 64" width="512" xmlns="http://www.w3.org/2000/svg"><g fill="#c4a2fc"><path d="m63 32a2.954 2.954 0 0 0 -.167-.944l-18.341 14.944 18.341 14.944a2.954 2.954 0 0 0 .167-.944z"/><path d="m37.369 48.2a1 1 0 0 0 1.262 0l22.975-18.72a2.974 2.974 0 0 0 -1.606-.48h-44a2.974 2.974 0 0 0 -1.606.475z"/><path d="m13.167 31.056a2.954 2.954 0 0 0 -.167.944v28a2.954 2.954 0 0 0 .167.944l18.34-14.944z"/><path d="m42.909 47.29-3.009 2.456a3.011 3.011 0 0 1 -3.79 0l-3.019-2.456-18.7 15.235a2.974 2.974 0 0 0 1.609.475h44a2.974 2.974 0 0 0 1.606-.475z"/></g><path d="m40 1h-29.171a2.978 2.978 0 0 0 -2.122.879l-6.828 6.828a2.978 2.978 0 0 0 -.879 2.122v29.171a3 3 0 0 0 3 3h36a3 3 0 0 0 3-3v-36a3 3 0 0 0 -3-3zm-30 2.414v5.586a1 1 0 0 1 -1 1h-5.586zm31 36.586a1 1 0 0 1 -1 1h-36a1 1 0 0 1 -1-1v-28h6a3 3 0 0 0 3-3v-6h28a1 1 0 0 1 1 1z" fill="#151a6a"/><path d="m22 13.373a6.94 6.94 0 0 0 -8.986.6 6.7 6.7 0 0 0 0 9.58l8.286 8.159a1 1 0 0 0 1.4 0l8.284-8.155a6.7 6.7 0 0 0 0-9.58 6.94 6.94 0 0 0 -8.984-.604zm7.583 8.759-7.583 7.468-7.583-7.465a4.7 4.7 0 0 1 0-6.731 4.928 4.928 0 0 1 6.881 0 1 1 0 0 0 1.4 0 4.927 4.927 0 0 1 6.881 0 4.7 4.7 0 0 1 .004 6.728z" fill="#151a6a"/></svg>