<svg id="line" height="512" viewBox="0 0 64 64" width="512" xmlns="http://www.w3.org/2000/svg"><path d="m57.181 27.753a13.139 13.139 0 0 0 -17.681-.645 13.14 13.14 0 0 0 -17.681.644 12.746 12.746 0 0 0 0 18.2l16.981 16.76a1 1 0 0 0 1.4 0l16.98-16.765a12.745 12.745 0 0 0 .001-18.194zm-1.181 10.099a1 1 0 0 1 -1-1 6.72 6.72 0 0 0 -2.025-4.81 7.043 7.043 0 0 0 -4.983-2.031 1 1 0 0 1 0-2.006 9.027 9.027 0 0 1 6.386 2.608 8.713 8.713 0 0 1 2.622 6.237 1 1 0 0 1 -1 1.002z" fill="#c4a2fc"/><path d="m44.462 17.806a9 9 0 1 0 -8.924 0 13.053 13.053 0 0 0 -7.538 7.202 13.053 13.053 0 0 0 -7.538-7.2 9 9 0 1 0 -8.924 0 13.01 13.01 0 0 0 -8.538 12.192v18a3 3 0 0 0 3 3h44a3 3 0 0 0 3-3v-18a13.01 13.01 0 0 0 -8.538-12.194zm-11.462-7.806a7 7 0 1 1 7 7 7.008 7.008 0 0 1 -7-7zm-5 35.6-7.583-7.465a4.7 4.7 0 0 1 0-6.731 4.927 4.927 0 0 1 6.882 0 1 1 0 0 0 1.4 0 4.926 4.926 0 0 1 6.882 0 4.7 4.7 0 0 1 0 6.73zm-19-35.6a7 7 0 1 1 7 7 7.008 7.008 0 0 1 -7-7zm-4 38v-18a11 11 0 0 1 21.918-1.286 6.942 6.942 0 0 0 -7.9 1.262 6.7 6.7 0 0 0 0 9.581l7.982 7.861v1.582h-21a1 1 0 0 1 -1-1zm46 0a1 1 0 0 1 -1 1h-21v-1.582l7.985-7.861a6.7 6.7 0 0 0 0-9.58 6.94 6.94 0 0 0 -7.9-1.263 11 11 0 0 1 21.915 1.286z" fill="#151a6a"/></svg>