<svg id="line" height="512" viewBox="0 0 64 64" width="512" xmlns="http://www.w3.org/2000/svg"><g fill="#c4a2fc"><path d="m49.962 46.277a11.983 11.983 0 0 0 -23.924 0 42.947 42.947 0 0 0 23.924 0z"/><path d="m26.658 52.97a33.2 33.2 0 0 0 22.684 0 1 1 0 0 0 .658-.942v-3.678a44.781 44.781 0 0 1 -24 0v3.678a1 1 0 0 0 .658.942z"/><path d="m52 46.5v6.933c0 1.052-1.283 1.071-1.975 1.421a35.12 35.12 0 0 1 -24.05 0c-.727-.37-1.975-.374-1.975-1.423v-6.931c-6.344 1.471-11 4.014-11 7.533 0 11.958 50 11.959 50 0 0-3.521-4.656-6.064-11-7.533z"/></g><path d="m29.717 41.336a4.987 4.987 0 0 1 -7.434 0 1 1 0 1 0 -1.483 1.336 6.987 6.987 0 0 0 10.41 0 1 1 0 0 0 -1.488-1.336z" fill="#151a6a"/><path d="m50.64 37.231a21.174 21.174 0 0 1 -6.506-8.331 16.9 16.9 0 0 1 -1.269-4.978 17.029 17.029 0 0 0 -12.182-14.251 8.993 8.993 0 0 0 4.317-7.671 1 1 0 0 0 -.993-1 9 9 0 0 0 -8.007 4.9 9 9 0 0 0 -8.007-4.9 1 1 0 0 0 -.993 1 8.993 8.993 0 0 0 4.317 7.67 17.029 17.029 0 0 0 -12.182 14.255 16.9 16.9 0 0 1 -1.269 4.975 22.791 22.791 0 0 1 -6.506 8.331 1 1 0 0 0 -.254 1.216c.214.428 5.335 10.409 16.652 10.409a16.912 16.912 0 0 0 16.484 0c11.315 0 16.439-9.982 16.652-10.409a1 1 0 0 0 -.254-1.216zm-17.724-34.147a7.015 7.015 0 0 1 -5.832 5.832 7.015 7.015 0 0 1 5.832-5.832zm-13.832 0a7.015 7.015 0 0 1 5.832 5.832 7.015 7.015 0 0 1 -5.832-5.832zm21 17.807c-7.725-9.14-20.414-9.176-28.17 0 4.786-13.149 23.379-13.167 28.171 0zm.736 5.109h-7.436a6.92 6.92 0 0 1 -6.455-4.371 1 1 0 0 0 -1.858 0 6.92 6.92 0 0 1 -6.457 4.371h-7.434c1.051-3.573 7.1-10 14.82-10s13.768 6.426 14.82 10zm-37.542 12.234a24.517 24.517 0 0 0 5.722-7.119v2.885a16.935 16.935 0 0 0 5.555 12.533c-6.507-1.319-10.146-6.426-11.277-8.299zm7.722-4.234v-6h7.614a8.9 8.9 0 0 0 7.386-3.886 8.9 8.9 0 0 0 7.384 3.886h7.616v6a15 15 0 0 1 -30 0zm26.449 12.53a16.941 16.941 0 0 0 5.551-12.53v-2.885a24.534 24.534 0 0 0 5.722 7.119c-1.13 1.873-4.768 6.972-11.273 8.295z" fill="#151a6a"/></svg>