<svg id="line" height="512" viewBox="0 0 64 64" width="512" xmlns="http://www.w3.org/2000/svg"><path d="m61.553 45.27-5.01-3.331a18.282 18.282 0 0 0 0-7.878l5.01-3.331a1 1 0 0 0 .313-1.333l-4.493-7.797a1 1 0 0 0 -1.31-.4l-5.38 2.676a19.017 19.017 0 0 0 -6.818-3.941l-.374-6.005a1 1 0 0 0 -1-.938h-8.984a1 1 0 0 0 -1 .938l-.375 6.005a19.034 19.034 0 0 0 -6.818 3.941l-5.38-2.676a1 1 0 0 0 -1.31.4l-4.49 7.8a1 1 0 0 0 .313 1.333l5.01 3.331a18.314 18.314 0 0 0 0 7.878l-5.01 3.331a1 1 0 0 0 -.313 1.333l4.493 7.794a1 1 0 0 0 1.31.4l5.38-2.678a19.022 19.022 0 0 0 6.818 3.943l.375 6.005a1 1 0 0 0 1 .937h8.987a1 1 0 0 0 1-.937l.374-6.005a19.022 19.022 0 0 0 6.818-3.943l5.38 2.678a1 1 0 0 0 1.31-.4l4.487-7.8a1 1 0 0 0 -.313-1.33zm-23.553 1.73a9 9 0 1 1 8.987-9 8.993 8.993 0 0 1 -8.987 9z" fill="#c4a2fc"/><path d="m46.816 18.861a7 7 0 1 0 -7.632 0 9.058 9.058 0 0 0 -3.215 2.539 9 9 0 0 0 -5.153-7.535 7 7 0 1 0 -7.632 0 9 9 0 0 0 -5.153 7.535 9.058 9.058 0 0 0 -3.215-2.535 7 7 0 1 0 -7.632 0 9 9 0 0 0 -5.184 8.135v9a3 3 0 0 0 3 3h44a3 3 0 0 0 3-3v-9a9 9 0 0 0 -5.184-8.139zm-8.816-5.861a5 5 0 1 1 5 5 5.006 5.006 0 0 1 -5-5zm-16-5a5 5 0 1 1 5 5 5.006 5.006 0 0 1 -5-5zm-16 5a5 5 0 1 1 5 5 5.006 5.006 0 0 1 -5-5zm-2 23v-9a7 7 0 0 1 14 0v10h-13a1 1 0 0 1 -1-1zm16-14a7 7 0 0 1 14 0v15h-14zm30 14a1 1 0 0 1 -1 1h-13v-10a7 7 0 0 1 14 0z" fill="#151a6a"/></svg>