<svg id="line" height="512" viewBox="0 0 64 64" width="512" xmlns="http://www.w3.org/2000/svg"><path d="m13.615 28.494a1.018 1.018 0 0 0 -.615.939v32.549a1.024 1.024 0 0 0 .445.847.985.985 0 0 0 .94.092 29.919 29.919 0 0 1 22.615-.242v-34.716a31.9 31.9 0 0 0 -23.385.531z" fill="#c4a2fc"/><path d="m62.385 28.494a31.368 31.368 0 0 0 -6.385-1.924v7.949l-2-2.035-2 2.035v-8.454a31.939 31.939 0 0 0 -13 1.9v34.714a29.919 29.919 0 0 1 22.615.242.988.988 0 0 0 .94-.092 1.024 1.024 0 0 0 .445-.847v-32.549a1.018 1.018 0 0 0 -.615-.939z" fill="#c4a2fc"/><g fill="#151a6a"><path d="m50 42h-1v-26h1a1 1 0 0 0 0-2h-13.764l-9.236-4.618v-.382h7a1 1 0 0 0 .832-1.555l-1.632-2.445 1.63-2.445a1 1 0 0 0 -.83-1.555h-8a1 1 0 0 0 -1 1v7.382l-9.236 4.618h-13.764a1 1 0 0 0 0 2h1v26h-1a1 1 0 0 0 0 2h48a1 1 0 0 0 0-2zm-18.832-36.445.964 1.445h-5.132v-4h5.132l-.964 1.445a1 1 0 0 0 0 1.11zm-26.168 10.445h10v26h-10zm12-.382 9-4.5 9 4.5v26.382h-4v-7a3 3 0 0 0 -3-3h-4a3 3 0 0 0 -3 3v7h-4zm6 26.382v-7a1 1 0 0 1 1-1h4a1 1 0 0 1 1 1v7zm14 0v-26h10v26z"/><path d="m26 26a4 4 0 1 0 -4-4 4 4 0 0 0 4 4zm0-6a2 2 0 1 1 -2 2 2 2 0 0 1 2-2z"/><path d="m12 20h-4a1 1 0 0 0 0 2h4a1 1 0 0 0 0-2z"/><path d="m12 28h-4a1 1 0 0 0 0 2h4a1 1 0 0 0 0-2z"/><path d="m12 36h-4a1 1 0 0 0 0 2h4a1 1 0 0 0 0-2z"/><path d="m44 20h-4a1 1 0 0 0 0 2h4a1 1 0 0 0 0-2z"/><path d="m44 28h-4a1 1 0 0 0 0 2h4a1 1 0 0 0 0-2z"/><path d="m44 36h-4a1 1 0 0 0 0 2h4a1 1 0 0 0 0-2z"/></g></svg>