<svg id="line" height="512" viewBox="0 0 64 64" width="512" xmlns="http://www.w3.org/2000/svg"><path d="m54 41.023 1.745-6.08a3.688 3.688 0 0 1 3.54-2.654 3.664 3.664 0 0 1 3.67 4.185l-2.402 16.014a7.72 7.72 0 0 1 -5.531 6.255l-13.789 3.957a7.828 7.828 0 0 1 -8.81-3.374l-13.1-21.175a2.121 2.121 0 0 1 .757-2.96 2.181 2.181 0 0 1 2.73.455l6.477 7.454-6.177-17.936a2.568 2.568 0 0 1 1.268-3.121l.051-.026a2.629 2.629 0 0 1 3.546 1.139l8.517 16.882-4.163-20.358a2.58 2.58 0 0 1 1.834-2.991l.061-.017a2.622 2.622 0 0 1 3.166 1.548l7.241 18.48.169-18.141a2.586 2.586 0 0 1 1.882-2.459 2.615 2.615 0 0 1 3.3 2.038z" fill="#c4a2fc"/><path d="m46.405 21.138a3.189 3.189 0 0 0 -4.049.688l-3.272 3.839 4.658-13.786a3.7 3.7 0 0 0 -1.832-4.493 3.656 3.656 0 0 0 -4.978 1.629l-5.355 10.82 2.768-13.8a3.733 3.733 0 0 0 -2.637-4.3 3.642 3.642 0 0 0 -4.444 2.215l-5.53 14.388-.123-13.677a3.667 3.667 0 0 0 -7.284-.6l-3.364 19.52-.593-2.106a4.775 4.775 0 0 0 -9.318 2.016l2.462 16.697a9.021 9.021 0 0 0 6.364 7.336l14.106 4.12a8.948 8.948 0 0 0 10.138-3.957l13.406-22.075a3.239 3.239 0 0 0 -1.123-4.474zm-.575 3.429-13.406 22.075a6.965 6.965 0 0 1 -7.886 3.078l-14.1-4.12a7.017 7.017 0 0 1 -4.95-5.706l-2.467-16.694a2.8 2.8 0 0 1 2.754-3.214h.012a2.8 2.8 0 0 1 2.668 2.039l1.785 6.338a1 1 0 0 0 1.938-.1l4.11-23.854a1.678 1.678 0 0 1 2.122-1.337 1.7 1.7 0 0 1 1.21 1.608l.17 18.92a1 1 0 0 0 1.924.352l7.407-19.27a1.68 1.68 0 0 1 2.1-1 1.7 1.7 0 0 1 1.173 1.958l-4.258 21.224a1 1 0 0 0 1.864.644l8.712-17.6a1.711 1.711 0 0 1 3.144 1.325l-6.319 18.7a1 1 0 0 0 1.7.975l6.631-7.78a1.211 1.211 0 0 1 1.536-.261 1.23 1.23 0 0 1 .426 1.7z" fill="#151a6a"/></svg>