<svg height="496pt" viewBox="-64 0 496 496" width="496pt" xmlns="http://www.w3.org/2000/svg"><path d="m104 488h176c51.480469-56.625 80-130.398438 80-206.929688v-17.070312c0 22.089844-17.910156 40-40 40-13.144531 0-24.710938-6.433594-32-16.214844-7.289062 9.78125-18.855469 16.214844-32 16.214844s-24.710938-6.433594-32-16.214844c-7.289062 9.78125-18.855469 16.214844-32 16.214844s-24.710938-6.433594-32-16.214844c-7.289062 9.78125-18.855469 16.214844-32 16.214844s-24.710938-6.433594-32-16.214844c-7.289062 9.78125-18.855469 16.214844-32 16.214844-22.089844 0-40-17.910156-40-40v17.070312c0 76.53125 28.519531 150.304688 80 206.929688zm0 0" fill="#f0bc5e"/><path d="m112.449219 461.078125c-24.082031-29.292969-41.785157-62.527344-52.609375-98.789063l15.328125-4.578124c10.214843 34.210937 26.910156 65.570312 49.640625 93.210937zm0 0"/><path d="m55.464844 345.824219c-1.273438-5.441407-2.386719-10.929688-3.335938-16.464844l15.765625-2.71875c.898438 5.214844 1.953125 10.398437 3.152344 15.535156zm0 0"/><path d="m336.929688 222.351562-12.496094 9.992188 27.566406 34.464844v14.261718c0 73.523438-26.816406 144.027344-75.566406 198.929688h-168.867188c-48.75-54.902344-75.566406-125.40625-75.566406-198.929688v-14.261718l57.238281-71.550782c12.570313 6.703126 41.007813 12.742188 102.761719 12.742188 18.695312 0 37.097656-.769531 53.191406-2.214844l-1.4375-15.9375c-12.914062 1.167969-27.386718 1.847656-42.296875 2.054688l2.632813-15.78125c13.980468.253906 27.519531.933594 39.671875 2.03125l1.4375-15.9375c-11.839844-1.0625-24.925781-1.75-38.445313-2.046875l20.6875-124.113281c1.925782-11.621094 11.886719-20.054688 23.671875-20.054688h76.886719v-16h-76.886719c-19.640625 0-36.234375 14.054688-39.457031 33.425781l-21.097656 126.582031c-13.207032.023438-24.847656.320313-35.144532.847657l-58.398437-74.328125c4.390625-6.421875 6.984375-14.175782 6.984375-22.527344 22.054688 0 40-17.945312 40-40v-24h-144v136h24c19.320312 0 35.480469-13.769531 39.191406-32h.808594c7.894531 0 15.214844-2.375 21.425781-6.335938l50.726563 64.566407c-38.496094 3.65625-51.457032 11.152343-54.992188 17.523437l-65.160156 81.4375v19.871094c0 78.691406 29.152344 154.089844 82.078125 212.3125l2.386719 2.625h183.078125l2.378906-2.617188c52.925781-58.222656 82.078125-133.621093 82.078125-212.3125v-19.871093zm-208.929688-198.351562c0 13.230469-10.769531 24-24 24h-5.960938l-58.664062-32h88.625zm-104 96h-8v-80.625l31.824219 58.34375c-.894531 12.425781-11.175781 22.28125-23.824219 22.28125zm40-32h-3.246094l-32.707031-59.953125 59.953125 32.707031v3.246094c0 13.230469-10.769531 24-24 24zm123.878906 88.046875-2.648437 15.875c-1.832031-.019531-3.679688-.035156-5.460938-.066406l-12.089843-15.382813c6.351562-.234375 13.054687-.382812 20.199218-.425781zm-39.734375 1.449219 10.734375 13.664062c-27.191406-1.417968-46.046875-4.417968-56.046875-7.160156 8.632813-2.375 23.832031-4.9375 45.3125-6.503906zm0 0"/><path d="m350.550781 161.398438c.058594-8.496094-3.214843-16.566407-9.292969-22.664063-6.042968-6.03125-14.042968-9.292969-22.472656-9.292969-.066406 0-.128906.007813-.183594.007813-5.984374-6.058594-14.007812-9.449219-22.601562-9.449219s-16.617188 3.390625-22.601562 9.449219c-.0625 0-.125 0-.183594 0-8.429688 0-16.429688 3.261719-22.480469 9.292969-6.070313 6.089843-9.34375 14.160156-9.285156 22.65625-6.058594 5.984374-9.449219 14.007812-9.449219 22.601562s3.390625 16.617188 9.449219 22.601562c-.058594 8.496094 3.214843 16.566407 9.292969 22.644532 6.042968 6.042968 14.042968 9.3125 22.472656 9.304687h.183594c5.984374 6.058594 14.007812 9.449219 22.601562 9.449219s16.617188-3.390625 22.601562-9.449219h.183594c8.429688 0 16.429688-3.261719 22.472656-9.304687 6.078126-6.078125 9.351563-14.148438 9.292969-22.644532 6.058594-5.984374 9.449219-14.007812 9.449219-22.601562s-3.390625-16.617188-9.449219-22.601562zm0 0" fill="#f0bc5e"/><path d="m296 208c-13.230469 0-24-10.769531-24-24s10.769531-24 24-24 24 10.769531 24 24-10.769531 24-24 24zm0-32c-4.40625 0-8 3.59375-8 8s3.59375 8 8 8 8-3.59375 8-8-3.59375-8-8-8zm0 0"/></svg>