<svg height="496pt" viewBox="0 0 496 496" width="496pt" xmlns="http://www.w3.org/2000/svg"><path d="m0 496h496v-83.398438c-7.265625 4.726563-12.007812 11.398438-25.382812 11.398438-20.695313 0-20.695313-16-41.394532-16-20.679687 0-20.679687 16-41.351562 16-20.664063 0-20.664063-16-41.328125-16-20.671875 0-20.671875 16-41.34375 16-20.664063 0-20.664063-16-41.328125-16-20.671875 0-20.671875 16-41.335938 16-20.664062 0-20.664062-16-41.328125-16-20.664062 0-20.664062 16-41.320312 16-20.640625 0-20.640625-16-41.285157-16-20.664062 0-20.664062 16-41.320312 16-20.640625 0-20.640625-16-41.28125-16-7.3125 0-12.03125 2.007812-16 4.601562zm0 0" fill="#f0bc5e"/><path d="m233.824219 117.632812-3.128907 15.6875c2.296876.464844 4.410157 1.046876 6.28125 1.742188 2.664063 1 5.289063 2.050781 7.871094 3.152344l6.296875-14.710938c-2.824219-1.207031-5.679687-2.351562-8.585937-3.433594-2.664063-1-5.605469-1.824218-8.734375-2.4375zm0 0"/><path d="m267.839844 131.609375-7.6875 14.03125c48.742187 26.6875 79.953125 75.015625 83.503906 129.296875l15.96875-1.050781c-3.90625-59.765625-38.21875-112.957031-91.785156-142.277344zm0 0"/><path d="m456.839844 335.480469c-9.777344-4.894531-20.734375-7.480469-31.671875-7.480469h-33.167969v-42.679688c0-51.871093-19.382812-101.441406-54.558594-139.550781-18.457031-19.992187-40.273437-35.859375-64.449218-47.074219l.976562-5.863281c3.664062-21.984375 12.664062-43.007812 26.039062-60.832031 2.578126-3.449219 3.992188-7.703125 3.992188-12 0-11.023438-8.96875-20-20-20h-1.535156c-2.722656 0-5.359375.542969-7.871094 1.617188-36.273438 15.542968-69.027344 39.597656-94.714844 69.558593l-4.992187 5.824219c-16.558594.121094-33.085938 2.503906-48.957031 7.265625-27.578126 8.277344-52.914063 23.40625-73.265626 43.757813l-9.152343 9.152343-28.710938 11.488281c-8.992187 3.601563-14.800781 12.175782-14.800781 21.855469 0 11.640625 8.6875 21.65625 20.207031 23.304688l125.65625 17.953125c5.273438.75 10.703125 1.78125 16.28125 2.957031-1.410156 6.035156-2.144531 12.21875-2.144531 18.410156 0 27.015625 13.425781 52.085938 35.886719 67.0625l2.359375 1.578125c10.035156 6.679688 21.707031 10.214844 33.753906 10.214844h12.945312l-12.386718-24.769531c-5.597656-11.191407-8.558594-23.734375-8.558594-36.253907 0-5.390624.71875-10.679687 1.761719-15.886718 47.910156 19.367187 88.429687 51.46875 117.839843 92.910156h-8.761718c-10.9375 0-21.894532 2.585938-31.679688 7.480469-24.152344 12.070312-39.160156 36.351562-39.160156 63.351562v30.113281l16.648438-8.328124c16.519531-8.257813 35-12.617188 53.464843-12.617188 7.703125 0 15.421875-1.824219 22.3125-5.265625 10.847657-5.421875 19.039063-14.367187 23.574219-25.054687 4.535156 10.6875 12.726562 19.632812 23.574219 25.054687 6.898437 3.441406 14.609375 5.265625 22.3125 5.265625 18.464843 0 36.945312 4.359375 53.464843 12.625l16.648438 8.320312v-30.113281c0-27-15.007812-51.28125-39.160156-63.351562zm-175.96875-319.152344c.503906-.214844 1.050781-.328125 1.59375-.328125h1.535156c2.199219 0 4 1.792969 4 4 0 .871094-.28125 1.703125-.800781 2.398438-14.894531 19.859374-24.925781 43.304687-29.015625 67.800781l-.359375 2.175781c-10.082031-3.71875-20.511719-6.671875-31.222657-8.816406l-16.304687-3.261719c-4.984375-1-10.015625-1.695313-15.058594-2.25 23.609375-26.4375 53.082031-47.765625 85.632813-61.71875zm-50.414063 203.390625c1.992188-4.742188 4.269531-9.382812 7.160157-13.726562l1.039062-1.558594-13.3125-8.875-1.039062 1.5625c-10.664063 16-16.304688 34.613281-16.304688 53.847656 0 14.757812 3.433594 29.527344 9.929688 42.765625-3.792969-1.253906-7.425782-3.015625-10.800782-5.269531l-2.359375-1.578125c-18.007812-12-28.769531-32.09375-28.769531-53.742188 0-9.976562 2.359375-19.96875 6.824219-28.898437l8.335937-16.660156-14.3125-7.160157-8.335937 16.664063c-.390625.789062-.671875 1.628906-1.039063 2.429687-6.640625-1.441406-13.089844-2.6875-19.335937-3.582031l-125.65625-17.945312c-3.695313-.527344-6.480469-3.746094-6.480469-7.472657 0-3.105469 1.855469-5.847656 4.734375-7l31.761719-12.703125 11.480468-11.472656c18.488282-18.488281 41.503907-32.230469 66.542969-39.742188 16.664063-5 34.097657-7.128906 51.441407-6.496093l.117187.101562.082031-.09375c8.390625.320313 16.75 1.222657 25 2.871094l16.304688 3.261719c39.527344 7.90625 74.871094 27.746094 102.214844 57.363281 32.449218 35.160156 50.320312 80.871094 50.320312 128.710937v64.6875c-31.648438-59.527343-82.679688-105.214843-145.542969-130.289062zm118.808594 168.707031c-4.679687 2.335938-9.921875 3.574219-15.152344 3.574219-18.539062 0-37.105469 3.878906-54.113281 11.273438v-4.441407c0-20.902343 11.617188-39.695312 30.3125-49.039062 7.566406-3.792969 16.054688-5.792969 24.519531-5.792969h19.265625c4.558594 7.511719 8.773438 15.28125 12.636719 23.289062-2.519531 9.070313-8.742187 16.765626-17.46875 21.136719zm130.734375 14.847657c-17.007812-7.394532-35.566406-11.273438-54.113281-11.273438-5.230469 0-10.480469-1.238281-15.160157-3.574219-11.550781-5.777343-18.726562-17.394531-18.726562-30.3125v-14.113281h33.167969c8.472656 0 16.953125 2 24.519531 5.792969 18.695312 9.34375 30.3125 28.136719 30.3125 49.039062zm0 0"/><path d="m112 128h16v16h-16zm0 0"/><path d="m454.617188 480c-7.617188 0-11.050782-2.65625-15.808594-6.328125-5.570313-4.3125-12.503906-9.671875-25.585938-9.671875-13.078125 0-20.007812 5.359375-25.574218 9.671875-4.746094 3.671875-8.167969 6.328125-15.777344 6.328125-7.589844 0-11.023438-2.65625-15.765625-6.328125-5.570313-4.3125-12.488281-9.671875-25.5625-9.671875-13.070313 0-20 5.359375-25.566407 9.671875-4.746093 3.671875-8.167968 6.328125-15.777343 6.328125-7.589844 0-11.023438-2.65625-15.765625-6.328125-5.570313-4.3125-12.488282-9.671875-25.5625-9.671875-13.070313 0-20 5.359375-25.566406 9.671875-4.746094 3.671875-8.167969 6.328125-15.769532 6.328125-7.597656 0-11.023437-2.65625-15.765625-6.328125-5.570312-4.3125-12.488281-9.671875-25.5625-9.671875-13.070312 0-20 5.359375-25.558593 9.671875-4.746094 3.671875-8.160157 6.328125-15.761719 6.328125-7.582031 0-11-2.65625-15.742188-6.320312-5.558593-4.3125-12.480469-9.679688-25.542969-9.679688-13.074218 0-20 5.359375-25.5625 9.671875-4.742187 3.671875-8.167968 6.328125-15.757812 6.328125-7.585938 0-11.007812-2.65625-15.746094-6.328125-5.558594-4.304687-12.480468-9.671875-25.535156-9.671875v16c7.585938 0 11.007812 2.65625 15.742188 6.328125 5.5625 4.304687 12.480468 9.671875 25.539062 9.671875 13.0625 0 19.992188-5.359375 25.550781-9.671875 4.742188-3.671875 8.175781-6.328125 15.769531-6.328125 7.582032 0 11.007813 2.65625 15.75 6.328125 5.558594 4.3125 12.480469 9.671875 25.535157 9.671875 13.066406 0 19.992187-5.359375 25.554687-9.671875 4.742188-3.671875 8.175782-6.328125 15.765625-6.328125 7.59375 0 11.023438 2.65625 15.769531 6.328125 5.566407 4.3125 12.496094 9.671875 25.558594 9.671875 13.066406 0 19.992188-5.359375 25.5625-9.671875 4.742188-3.671875 8.175782-6.328125 15.773438-6.328125 7.59375 0 11.023437 2.65625 15.769531 6.328125 5.566406 4.3125 12.496094 9.671875 25.558594 9.671875 13.066406 0 20-5.359375 25.570312-9.671875 4.742188-3.671875 8.175781-6.328125 15.773438-6.328125 7.59375 0 11.023437 2.65625 15.769531 6.328125 5.566406 4.3125 12.496094 9.671875 25.558594 9.671875 13.066406 0 20-5.359375 25.570312-9.671875 4.742188-3.671875 8.175782-6.328125 15.78125-6.328125 7.617188 0 11.050782 2.65625 15.808594 6.328125 5.570312 4.3125 12.503906 9.671875 25.585938 9.671875 13.078124 0 20.007812-5.359375 25.574218-9.671875 4.761719-3.671875 8.191406-6.328125 15.808594-6.328125v-16c-13.078125 0-20.015625 5.359375-25.585938 9.671875-4.757812 3.671875-8.191406 6.328125-15.796874 6.328125zm0 0"/><path d="m57.976562 432c13.199219 0 20.207032-5.34375 25.847657-9.640625 4.847656-3.695313 8.34375-6.359375 16.144531-6.359375 7.808594 0 11.3125 2.664062 16.167969 6.359375 5.632812 4.296875 12.648437 9.640625 25.847656 9.640625s20.214844-5.34375 25.847656-9.640625c4.855469-3.695313 8.359375-6.359375 16.167969-6.359375v-16c-13.199219 0-20.214844 5.34375-25.847656 9.640625-4.855469 3.695313-8.359375 6.359375-16.167969 6.359375s-11.3125-2.664062-16.167969-6.359375c-5.632812-4.296875-12.648437-9.640625-25.847656-9.640625-13.191406 0-20.207031 5.34375-25.839844 9.640625-4.847656 3.695313-8.351562 6.359375-16.152344 6.359375-7.800781 0-11.296874-2.664062-16.144531-6.359375-5.632812-4.296875-12.640625-9.640625-25.832031-9.640625v16c7.792969 0 11.289062 2.664062 16.136719 6.359375 5.632812 4.296875 12.648437 9.640625 25.839843 9.640625zm0 0"/><g fill="#f0bc5e"><path d="m149.574219 376c-16.308594 0-29.574219-13.265625-29.574219-29.574219 0-19.226562 9.542969-37.074219 25.542969-47.738281l14.457031-9.632812v21.753906c0 8.632812 3.710938 16.847656 10.183594 22.542968l1.375 1.570313c2.914062 4.351563 4.441406 9.421875 4.441406 14.652344 0 14.578125-11.847656 26.425781-26.425781 26.425781zm0 0"/><path d="m373.574219 112c-5.230469 0-10.300781-1.527344-14.652344-4.441406l-1.570313-1.375c-5.695312-6.472656-13.910156-10.183594-22.542968-10.183594h-21.753906l9.632812-14.457031c10.664062-16 28.503906-25.542969 47.738281-25.542969 16.308594 0 29.574219 13.265625 29.574219 29.574219 0 14.578125-11.847656 26.425781-26.425781 26.425781zm0 0"/><path d="m58.425781 272c-14.578125 0-26.425781-11.847656-26.425781-26.425781 0-16.308594 13.265625-29.574219 29.574219-29.574219 19.226562 0 37.074219 9.542969 47.738281 25.542969l9.632812 14.457031h-21.753906c-8.632812 0-16.847656 3.710938-22.542968 10.183594l-1.570313 1.375c-4.351563 2.914062-9.421875 4.441406-14.652344 4.441406zm0 0"/></g></svg>