<svg height="496pt" viewBox="0 -3 496 495" width="496pt" xmlns="http://www.w3.org/2000/svg"><g fill="#f0bc5e"><path d="m216 146.332031c0 .390625.015625.742188.015625 1.128907 10.046875 4.4375 20.90625 6.871093 31.984375 6.871093s21.9375-2.433593 31.984375-6.871093c0-.386719.015625-.738282.015625-1.128907 0-64-32-96-32-96s-32 32-32 96zm0 0"/><path d="m136 266.332031 88-33.726562v-32l-88 33.726562zm0 0"/><path d="m247.945312 482.332031 29.320313-48h-58.640625zm0 0"/><path d="m277.265625 434.332031 29.367187 48 29.367188-48zm0 0"/><path d="m189.320312 482.332031 29.304688-48h-58.625zm0 0"/><path d="m360 266.332031-88-33.726562v-32l88 33.726562zm0 0"/></g><path d="m160 82.332031h16v16h-16zm0 0"/><path d="m184 186.332031c0 4.417969-3.582031 8-8 8s-8-3.582031-8-8 3.582031-8 8-8 8 3.582031 8 8zm0 0"/><path d="m344 439.53125c18.617188-6.605469 32-24.34375 32-45.199219 0-9.695312-2.910156-18.710937-7.871094-26.265625 14.710938-10.375 23.871094-27.375 23.871094-45.734375 0-18.984375-9.511719-35.761719-24-45.886719v-242.113281h-16l-3.847656.710938c-3.273438.816406-6.425782 1.863281-9.519532 3.015625-10.59375-12.4375-26.097656-19.726563-42.632812-19.726563-7.566406 0-15.03125 1.574219-21.9375 4.519531-6.488281-7-13.597656-13.449218-21.414062-19.023437l-4.648438-3.328125-4.648438 3.328125c-7.816406 5.582031-14.925781 12.023437-21.40625 19.023437-6.914062-2.945312-14.378906-4.519531-21.945312-4.519531-16.566406 0-32.0625 7.28125-42.640625 19.726563-3.09375-1.144532-6.246094-2.191406-9.511719-3.007813l-1.910156-.480469-17.9375-.238281v242.113281c-14.488281 10.132813-24 26.910157-24 45.886719 0 18.359375 9.160156 35.359375 23.871094 45.734375-4.960938 7.554688-7.871094 16.570313-7.871094 26.265625 0 20.855469 13.382812 38.59375 32 45.199219v34.800781h-120v16h432v-16h-120zm32-117.199219c0 13.871094-7.296875 26.679688-18.886719 33.921875-8.089843-6.195312-18.160156-9.921875-29.113281-9.921875h-9.054688l1.519532-2.28125c4.925781-7.390625 7.527344-16 7.527344-24.871093 0-12.046876-4.800782-22.976563-12.558594-31.039063 6.175781-3.71875 13.207031-5.808594 20.566406-5.808594 22.054688 0 40 17.945313 40 40zm-163.160156-32h19.160156v-129.527343c5.246094.976562 10.59375 1.527343 16 1.527343s10.753906-.550781 16-1.527343v129.527343h19.160156c15.902344 0 28.839844 12.9375 28.839844 28.839844 0 5.710937-1.671875 11.25-4.839844 16l-.753906 1.128906c-5.773438-8.417969-15.445312-13.96875-26.40625-13.96875-14.871094 0-27.289062 10.238281-30.863281 24h-2.273438c-3.574219-13.761719-15.992187-24-30.863281-24-10.960938 0-20.632812 5.550781-26.40625 13.96875l-.753906-1.128906c-3.167969-4.75-4.839844-10.289063-4.839844-16 0-15.902344 12.9375-28.839844 28.839844-28.839844zm3.160156-134.097656v14.417969c-2.585938-1.296875-5.121094-2.6875-7.527344-4.289063l-8.066406-5.375c-14.382812-9.59375-31.125-14.65625-48.40625-14.65625h-8v-16h8c14.113281 0 27.785156 4.144531 39.527344 11.96875l8.066406 5.375c5.191406 3.457031 10.695312 6.304688 16.40625 8.558594zm80.40625-8.558594 8.066406-5.375c11.742188-7.824219 25.414063-11.96875 39.527344-11.96875h8v16h-8c-17.28125 0-34.023438 5.0625-48.40625 14.65625l-8.066406 5.375c-2.40625 1.609375-4.941406 2.992188-7.527344 4.289063v-14.417969c5.710938-2.253906 11.214844-5.101563 16.40625-8.558594zm-80.40625 190.65625c5.894531 0 11 3.238281 13.777344 8h-27.554688c2.777344-4.761719 7.882813-8 13.777344-8zm64 0c5.894531 0 11 3.238281 13.777344 8h-27.554688c2.777344-4.761719 7.882813-8 13.777344-8zm56-72c-12.664062 0-24.71875 4.214844-34.542969 11.945313-5.601562-2.511719-11.777343-3.945313-18.296875-3.945313h-3.160156v-86.3125c5.71875-2.261719 11.28125-4.925781 16.40625-8.34375l8.066406-5.375c11.742188-7.824219 25.414063-11.96875 39.527344-11.96875h8v106.359375c-5.070312-1.519531-10.441406-2.359375-16-2.359375zm16-215.753906v63.753906h-8c-17.121094 0-33.703125 4.984375-48 14.40625v-6.40625c0-34 23.03125-63.503906 56-71.753906zm-56-16.246094c10.367188 0 20.144531 4.039063 27.496094 11.023438-8.601563 5.183593-16.191406 11.71875-22.527344 19.304687-4.25-10.167968-9.625-19.816406-16.074219-28.703125 3.59375-1.050781 7.328125-1.625 11.105469-1.625zm-48-14c19.71875 15.527344 34.414062 36.855469 42.023438 60.792969-6.40625 12.429688-10.023438 26.453125-10.023438 41.207031v16.246094c-7.550781 3.753906-15.679688 6.058594-24 6.960937v-95.207031h-16v95.207031c-8.320312-.910156-16.449219-3.214843-24-6.960937v-16.246094c0-14.742187-3.617188-28.769531-10.023438-41.199219 7.617188-23.945312 22.304688-45.273437 42.023438-60.800781zm-48 14c3.777344 0 7.511719.582031 11.113281 1.617188-6.457031 8.894531-11.824219 18.535156-16.082031 28.703125-6.34375-7.585938-13.933594-14.121094-22.535156-19.304688 7.351562-6.984375 17.128906-11.015625 27.503906-11.015625zm0 88v6.40625c-14.296875-9.421875-30.878906-14.40625-48-14.40625h-8v-63.753906c32.976562 8.257813 56 37.761719 56 71.753906zm-56 40h8c14.113281 0 27.785156 4.144531 39.527344 11.96875l8.066406 5.375c5.125 3.417969 10.679688 6.089844 16.40625 8.34375v86.3125h-3.160156c-6.519532 0-12.703125 1.433594-18.296875 3.945313-9.824219-7.730469-21.878907-11.945313-34.542969-11.945313-5.558594 0-10.929688.839844-16 2.359375zm-24 160c0-22.054687 17.945312-40 40-40 7.359375 0 14.390625 2.089844 20.558594 5.800781-7.757813 8.0625-12.558594 19-12.558594 31.039063 0 8.878906 2.601562 17.480469 7.527344 24.871094l1.527344 2.289062h-9.054688c-10.953125 0-21.023438 3.726563-29.113281 9.921875-11.589844-7.242187-18.886719-20.050781-18.886719-33.921875zm16 72c0-17.648437 14.351562-32 32-32h160c17.648438 0 32 14.351563 32 32 0 17.648438-14.351562 32-32 32h-160c-17.648438 0-32-14.351562-32-32zm32 48h160v32h-160zm0 0"/><path d="m152 386.332031h192v16h-192zm0 0"/><path d="m320 82.332031h16v16h-16zm0 0"/><path d="m328 186.332031c0 4.417969-3.582031 8-8 8s-8-3.582031-8-8 3.582031-8 8-8 8 3.582031 8 8zm0 0"/><path d="m0 474.332031h16v16h-16zm0 0"/><path d="m480 474.332031h16v16h-16zm0 0"/></svg>