<svg height="496pt" viewBox="0 0 496 496" width="496pt" xmlns="http://www.w3.org/2000/svg"><path d="m408 400h24v-48h-24v-80h-16v80h-16v-104h-16v104h-224v-104h-16v104h-16v-80h-16v80h-24v48h24v80h-56v16h432v-16h-56zm-16 80h-16v-80h16zm-216-80v80h-40v-80zm16-32h16v112h-16zm80 80h-48v-16h48zm0-32h-48v-16h48zm0-32h-48v-16h48zm-48 80h48v16h-48zm64-96h16v112h-16zm32 32h40v80h-40zm96-16h-96v-16h96zm-336-16h96v16h-96zm24 32h16v80h-16zm0 0"/><path d="m0 480h16v16h-16zm0 0"/><path d="m480 480h16v16h-16zm0 0"/><path d="m401.375 283.566406-30.65625-32.007812-30.640625 32.007812-30.644531-32.007812-30.664063 31.992187-30.769531-32.007812-30.769531 32.007812-30.664063-31.992187-30.644531 32.007812-30.640625-32.007812-30.65625 32.007812-39.625-41.40625 1.335938-4.464844c16.039062-53.457031 50.929687-99.175781 98.25-128.75 35.292968-22.074218 61.980468-55.960937 75.148437-95.449218l4.496094-13.496094h27.53125l4.496093 13.503906c13.167969 39.488282 39.847657 73.375 75.148438 95.449219 47.320312 29.566406 82.210938 75.292969 98.25 128.75l1.335938 4.464844zm0 0" fill="#f0bc5e"/><path d="m240 176h16v40h-16zm0 0"/><path d="m184.570312 149.042969 16.003907-39.996094 14.859375 5.945313-16.003906 39.996093zm0 0"/><path d="m280.578125 114.96875 14.863281-5.945312 16 40-14.863281 5.945312zm0 0"/><path d="m240 56h16v40h-16zm0 0"/><path d="m240 112h16v40h-16zm0 0"/><path d="m296.15625 177.574219 15.691406-3.136719 8 40-15.691406 3.136719zm0 0"/><path d="m352.160156 177.574219 15.6875-3.136719 8 40-15.691406 3.136719zm0 0"/><path d="m176.140625 214.441406 8.007813-40 15.6875 3.144532-8.007813 39.996093zm0 0"/><path d="m120.140625 214.4375 8.007813-39.996094 15.6875 3.140625-8.007813 39.996094zm0 0"/></svg>