<svg height="495pt" viewBox="-23 0 495 495.93609" width="495pt" xmlns="http://www.w3.org/2000/svg"><path d="m368.46875 127.9375c9.039062 11.359375 17.121094 23.4375 23.917969 36.160156-.238281 14.476563-2.160157 29.039063-5.757813 43.117188l-4.320312 17.441406c-3.921875 15.441406-5.839844 31.359375-5.839844 47.28125v23.117188c0 5.921874.238281 11.839843.800781 17.679687l6.398438 70.402344c.558593 5.839843.800781 11.757812.800781 17.679687v23.121094c0 8.796875-7.199219 16-16 16h-48c-8.800781 0-16-7.203125-16-16v-23.121094c0-5.921875.238281-11.839844.800781-17.679687l6.398438-70.402344c.558593-5.839844.800781-11.757813.800781-17.679687v-23.117188c0-15.921875-1.921875-31.839844-5.839844-47.28125l-4.320312-17.441406c-3.519532-14.160156-5.519532-28.558594-5.761719-43.117188v-.082031c6.882813-12.71875 14.882813-24.71875 23.921875-36.078125l1.359375-1.363281c3.121094 3.121093 7.199219 4.640625 11.359375 4.640625 2.878906 2.960937 6.878906 4.722656 11.28125 4.722656 4.398438 0 8.398438-1.761719 11.277344-4.722656 4.160156 0 8.242187-1.519532 11.363281-4.640625zm0 0" fill="#f0bc5e"/><path d="m128.46875 127.9375c9.039062 11.359375 17.121094 23.4375 23.917969 36.160156-.238281 14.476563-2.160157 29.039063-5.757813 43.117188l-4.320312 17.441406c-3.921875 15.441406-5.839844 31.359375-5.839844 47.28125v23.117188c0 5.921874.238281 11.839843.800781 17.679687l6.398438 70.402344c.558593 5.839843.800781 11.757812.800781 17.679687v23.121094c0 8.796875-7.199219 16-16 16h-48c-8.800781 0-16-7.203125-16-16v-23.121094c0-5.921875.238281-11.839844.800781-17.679687l6.398438-70.402344c.558593-5.839844.800781-11.757813.800781-17.679687v-23.117188c0-15.921875-1.921875-31.839844-5.839844-47.28125l-4.320312-17.441406c-3.519532-14.160156-5.519532-28.558594-5.761719-43.117188-.078125-.082031 0-.082031 0-.082031 6.882813-12.71875 14.882813-24.71875 23.921875-36.078125l1.359375-1.363281c3.121094 3.121093 7.199219 4.640625 11.359375 4.640625 2.878906 2.960937 6.878906 4.722656 11.28125 4.722656 4.398438 0 8.398438-1.761719 11.277344-4.722656 4.160156 0 8.242187-1.519532 11.363281-4.640625zm0 0" fill="#f0bc5e"/><path d="m96.46875 95.9375h16v16h-16zm0 0"/><path d="m145.132812 15.664062-1.136718-1.136718c-26.65625-21.792969-63.945313-18.726563-84.902344 6.90625l-1.097656 1.328125c-37.097656 45.34375-57.527344 102.589843-57.527344 161.175781l4.960938 18.496094c7.328124 25.636718 11.039062 52.152344 11.039062 78.796875 0 9.449219-.480469 19.050781-1.425781 28.539062l-1.519531 15.222657c-3.351563 33.519531-5.054688 67.617187-5.054688 101.335937 0 15.753906 5.414062 31.191406 15.246094 43.488281 13.289062 16.601563 33.105468 26.121094 54.359375 26.121094h52.785156c21.257813 0 41.074219-9.519531 54.351563-26.128906 9.839843-12.289063 15.257812-27.726563 15.257812-43.480469 0-33.71875-1.703125-67.816406-5.058594-101.328125l-1.519531-15.214844c-.941406-9.503906-1.421875-19.105468-1.421875-28.554687 0-26.644531 3.710938-53.167969 11.039062-78.804688l4.65625-16.296875.304688-2.191406c0-58.585938-20.433594-115.832031-57.527344-161.167969zm-74.761718 17.238282 1.097656-1.328125c13.101562-16.03125 39.136719-23.167969 61.800781-5.148438l5.277344 6.460938c27.546875 33.664062 45.089844 74.363281 51.273437 117.105469-12.816406-18.710938-28.25-35.664063-45.679687-50.046876-.640625-3.847656-2.191406-7.449218-4.570313-10.546874-.695312-5.183594-3.054687-9.972657-6.824218-13.742188-3.765625-3.769531-8.550782-6.128906-13.742188-6.824219-8.296875-6.359375-20.785156-6.359375-29.078125 0-5.1875.695313-9.976562 3.054688-13.746093 6.824219-3.769532 3.769531-6.128907 8.550781-6.824219 13.742188-2.375 3.097656-3.925781 6.707031-4.566407 10.546874-17.441406 14.382813-32.871093 31.34375-45.679687 50.046876 6.191406-42.734376 23.726563-83.433594 51.261719-117.089844zm112.472656 186.691406-1.183594-4.335938c-8.878906-32.570312-23.886718-62.496093-44.511718-89.113281 1.222656-2.390625 2.054687-4.96875 2.414062-7.664062.226562-.296875.386719-.625.601562-.929688 21.230469 18.867188 38.992188 41.890625 51.753907 67.21875l-3.800781 13.277344c-2.03125 7.113281-3.769532 14.304687-5.273438 21.546875zm-156.75 0c-1.503906-7.242188-3.242188-14.433594-5.273438-21.554688l-3.800781-13.269531c12.753907-25.328125 30.511719-48.351562 51.746094-67.21875.207031.304688.375.632813.597656.929688.359375 2.695312 1.191407 5.273437 2.417969 7.664062-20.625 26.617188-35.632812 56.542969-44.511719 89.113281zm59.0625-104.34375v-3.3125l-2.34375-2.34375c-1.511719-1.511719-2.34375-3.523438-2.34375-5.65625 0-2.144531.832031-4.152344 2.335938-5.648438l2.351562-2.34375v-3.320312c0-2.136719.832031-4.144531 2.34375-5.65625 1.511719-1.503906 3.519531-2.34375 5.65625-2.34375h3.320312l2.34375-2.351562c3-3.015626 8.296876-3.015626 11.296876 0l2.34375 2.351562h3.320312c2.136719 0 4.144531.832031 5.65625 2.34375 1.503906 1.511719 2.34375 3.519531 2.34375 5.65625v3.320312l2.351562 2.34375c1.503907 1.496094 2.335938 3.503907 2.335938 5.648438 0 2.132812-.832031 4.144531-2.34375 5.65625l-2.34375 2.34375v3.3125c0 2.132812-.832031 4.140625-2.34375 5.652344-1.511719 1.503906-3.519531 2.347656-5.65625 2.347656h-3.320312l-2.34375 2.351562c-3 3.015626-8.296876 3.015626-11.296876 0l-2.34375-2.351562h-3.320312c-2.136719 0-4.144531-.832031-5.65625-2.347656-1.511719-1.511719-2.34375-3.519532-2.34375-5.652344zm87.558594 344.558594c-10.222656 12.792968-25.480469 20.128906-41.855469 20.128906h-52.785156c-16.375 0-31.628907-7.335938-41.863281-20.128906-7.574219-9.457032-11.742188-21.351563-11.742188-33.480469 0-33.191406 1.671875-66.753906 4.976562-99.734375l1.519532-15.234375c1-10.015625 1.503906-20.160156 1.503906-30.128906 0-7.148438-.265625-14.292969-.769531-21.421875.160156-.59375.328125-1.136719.488281-1.769532l10.519531-38.582031c8.191407-30.015625 21.945313-57.65625 40.792969-82.289062 2.039062.902343 4.183594 1.566406 6.425781 1.871093 4.148438 3.175782 9.214844 4.898438 14.542969 4.898438s10.390625-1.722656 14.535156-4.898438c2.238282-.304687 4.382813-.96875 6.425782-1.871093 18.847656 24.632812 32.605468 52.273437 40.789062 82.289062l10.519531 38.574219c.160157.632812.328125 1.183594.488281 1.769531-.496093 7.136719-.757812 14.28125-.757812 21.429688 0 9.96875.503906 20.113281 1.503906 30.136719l1.519532 15.226562c3.304687 32.980469 4.976562 66.535156 4.976562 99.734375 0 12.128906-4.167969 24.023437-11.753906 33.480469zm0 0"/><path d="m336.46875 95.9375h16v16h-16zm0 0"/><path d="m390.941406 22.769531-5.808594-7.105469-1.136718-1.136718c-26.65625-21.792969-63.953125-18.726563-84.902344 6.90625l-1.097656 1.328125c-37.097656 45.34375-57.527344 102.589843-57.527344 161.175781l4.960938 18.496094c7.328124 25.636718 11.039062 52.160156 11.039062 78.804687 0 9.449219-.480469 19.050781-1.425781 28.539063l-1.519531 15.222656c-3.351563 33.511719-5.054688 67.609375-5.054688 101.328125 0 15.753906 5.414062 31.191406 15.246094 43.488281 13.289062 16.601563 33.105468 26.121094 54.359375 26.121094h52.785156c21.257813 0 41.074219-9.519531 54.351563-26.128906 9.839843-12.289063 15.257812-27.726563 15.257812-43.480469 0-33.71875-1.703125-67.816406-5.058594-101.328125l-1.519531-15.214844c-.941406-9.503906-1.421875-19.105468-1.421875-28.554687 0-26.644531 3.710938-53.167969 11.039062-78.804688l4.65625-16.296875.304688-2.191406c0-58.585938-20.433594-115.832031-57.527344-161.167969zm31.902344 196.824219-1.183594-4.335938c-8.878906-32.570312-23.886718-62.496093-44.511718-89.113281 1.222656-2.390625 2.054687-4.96875 2.414062-7.664062.226562-.296875.386719-.625.601562-.929688 21.230469 18.867188 38.992188 41.890625 51.753907 67.21875l-3.800781 13.277344c-2.03125 7.113281-3.769532 14.304687-5.273438 21.546875zm-156.75 0c-1.503906-7.242188-3.242188-14.433594-5.273438-21.554688l-3.800781-13.269531c12.753907-25.328125 30.511719-48.351562 51.746094-67.21875.207031.304688.375.632813.597656.929688.359375 2.695312 1.191407 5.273437 2.417969 7.664062-20.625 26.617188-35.632812 56.542969-44.511719 89.113281zm59.0625-104.34375v-3.3125l-2.34375-2.34375c-1.511719-1.511719-2.34375-3.523438-2.34375-5.65625 0-2.144531.832031-4.152344 2.335938-5.648438l2.351562-2.34375v-3.320312c0-2.136719.832031-4.144531 2.34375-5.65625 1.511719-1.503906 3.519531-2.34375 5.65625-2.34375h3.320312l2.34375-2.351562c3-3.015626 8.296876-3.015626 11.296876 0l2.34375 2.351562h3.320312c2.136719 0 4.144531.832031 5.65625 2.34375 1.503906 1.511719 2.34375 3.519531 2.34375 5.65625v3.320312l2.351562 2.34375c1.503907 1.496094 2.335938 3.503907 2.335938 5.648438 0 2.132812-.832031 4.144531-2.34375 5.65625l-2.34375 2.34375v3.3125c0 2.132812-.832031 4.140625-2.34375 5.652344-1.511719 1.503906-3.519531 2.347656-5.65625 2.347656h-3.320312l-2.34375 2.351562c-3 3.015626-8.296876 3.015626-11.296876 0l-2.34375-2.351562h-3.320312c-2.136719 0-4.144531-.832031-5.65625-2.347656-1.511719-1.511719-2.34375-3.519532-2.34375-5.652344zm-14.785156-82.347656 1.097656-1.328125c13.109375-16.03125 39.136719-23.167969 61.800781-5.148438l5.277344 6.460938c27.546875 33.664062 45.089844 74.363281 51.273437 117.105469-12.816406-18.710938-28.25-35.664063-45.679687-50.046876-.640625-3.847656-2.191406-7.449218-4.570313-10.546874-.695312-5.183594-3.054687-9.972657-6.824218-13.742188-3.765625-3.769531-8.550782-6.128906-13.742188-6.824219-8.296875-6.359375-20.785156-6.359375-29.078125 0-5.1875.695313-9.976562 3.054688-13.746093 6.824219-3.769532 3.769531-6.128907 8.550781-6.824219 13.742188-2.375 3.097656-3.925781 6.707031-4.566407 10.546874-17.441406 14.382813-32.871093 31.34375-45.679687 50.046876 6.191406-42.734376 23.726563-83.433594 51.261719-117.089844zm102.34375 426.90625c-10.222656 12.792968-25.480469 20.128906-41.855469 20.128906h-52.785156c-16.375 0-31.628907-7.335938-41.863281-20.128906-7.574219-9.457032-11.742188-21.351563-11.742188-33.480469 0-33.191406 1.671875-66.753906 4.976562-99.734375l1.519532-15.234375c1-10.015625 1.503906-20.160156 1.503906-30.128906 0-7.148438-.265625-14.292969-.769531-21.421875.160156-.59375.328125-1.136719.488281-1.769532l10.519531-38.574218c8.191407-30.015625 21.945313-57.65625 40.792969-82.289063 2.039062.90625 4.183594 1.566407 6.425781 1.871094 4.148438 3.167969 9.214844 4.890625 14.542969 4.890625s10.390625-1.722656 14.535156-4.898438c2.238282-.304687 4.382813-.96875 6.425782-1.871093 18.847656 24.632812 32.605468 52.273437 40.789062 82.289062l10.519531 38.574219c.160157.632812.328125 1.183594.488281 1.769531-.496093 7.136719-.757812 14.28125-.757812 21.429688 0 9.96875.503906 20.113281 1.503906 30.136719l1.519532 15.226562c3.304687 32.980469 4.976562 66.535156 4.976562 99.734375 0 12.128906-4.167969 24.023437-11.753906 33.480469zm0 0"/></svg>