<svg height="496pt" viewBox="-24 0 496 496" width="496pt" xmlns="http://www.w3.org/2000/svg"><g fill="#f0bc5e"><path d="m248 152h16v192h-16zm0 0"/><path d="m144.03125 16.664062 6.9375 83.304688c.925781 11.230469 10.496094 20.03125 21.765625 20.03125 3.378906 0 6.753906-.800781 9.769531-2.304688l38.089844-19.039062h6.832031l38.085938 19.039062c3 1.503907 6.375 2.304688 9.753906 2.304688 11.269531 0 20.832031-8.800781 21.757813-20.023438l6.945312-83.3125-7.96875-.664062-72 72-72-72zm0 0"/><path d="m0 208h88v48h-88zm0 0"/><path d="m360 208h88v48h-88zm0 0"/></g><path d="m385.28125 40.9375-81.28125-30.480469v-10.457031h-160v10.457031l-81.28125 30.480469c-27.941406 10.476562-46.71875 37.566406-46.71875 67.414062v99.648438h16v-99.648438c0-19.664062 10.550781-37.703124 26.96875-47.734374 13.894531 54.359374 21.03125 110.269531 21.03125 166.390624v1.695313c0 44.121094-4.382812 88.441406-13.039062 131.710937l-20.722657 103.585938h23.992188c15.984375 0 31.480469 3.289062 46.074219 9.785156l24.894531 11.0625c16.648437 7.390625 34.335937 11.152344 52.570312 11.152344h12l18.230469-54.703125 18.230469 54.703125h12c18.234375 0 35.921875-3.761719 52.570312-11.160156l24.894531-11.0625c14.59375-6.488282 30.097657-9.777344 46.074219-9.777344h23.992188l-20.722657-103.585938c-8.65625-43.269531-13.039062-87.589843-13.039062-131.710937v-1.695313c0-56.078124 7.121094-111.953124 21.039062-166.390624 16.417969 10.039062 26.960938 28.070312 26.960938 47.734374v99.648438h16v-99.648438c0-29.847656-18.777344-56.9375-46.71875-67.414062zm-100.59375-24.9375-16 16h-89.375l-16-16zm-60.6875 60.6875-28.6875-28.6875h57.375zm-29.769531 403.3125h-.460938c-15.984375 0-31.480469-3.289062-46.074219-9.785156l-24.894531-11.0625c-16.648437-7.390625-34.335937-11.152344-52.570312-11.152344h-4.46875l16.886719-84.449219c8.855468-44.3125 13.351562-89.679687 13.351562-134.847656v-1.695313c0-58.335937-7.519531-116.449218-22.246094-173.121093l76.230469-28.589844 66.015625 66.015625v323.382812zm157.769531-252.992188v1.695313c0 45.167969 4.496094 90.535156 13.351562 134.847656l16.886719 84.449219h-4.46875c-18.234375 0-35.921875 3.761719-52.570312 11.160156l-24.894531 11.0625c-14.59375 6.488282-30.097657 9.777344-46.074219 9.777344h-.460938l-21.769531-65.296875v-323.390625l66.015625-66.015625 76.230469 28.582031c-14.710938 56.527344-22.246094 114.714844-22.246094 173.128906zm0 0"/><path d="m248 192h16v16h-16zm0 0"/><path d="m248 144h16v16h-16zm0 0"/><path d="m248 240h16v16h-16zm0 0"/><path d="m248 288h16v16h-16zm0 0"/><path d="m248 336h16v16h-16zm0 0"/><path d="m112 160h88v16h-88zm0 0"/></svg>