<?xml version="1.0" encoding="iso-8859-1"?>
<!-- Generator: Adobe Illustrator 19.0.0, SVG Export Plug-In . SVG Version: 6.00 Build 0)  -->
<svg version="1.1" id="Layer_1" xmlns="http://www.w3.org/2000/svg" xmlns:xlink="http://www.w3.org/1999/xlink" x="0px" y="0px"
	 viewBox="0 0 295.796 295.796" style="enable-background:new 0 0 295.796 295.796;" xml:space="preserve">
<g>
	<g>
		<circle style="fill:#F9BA48;" cx="85.714" cy="85.714" r="61.905"/>
		<path style="fill:#333333;" d="M171.429,85.714C171.429,38.452,132.976,0,85.714,0S0,38.452,0,85.714s38.452,85.714,85.714,85.714
			S171.429,132.976,171.429,85.714z M85.714,161.905c-42.01,0-76.19-34.181-76.19-76.19s34.181-76.19,76.19-76.19
			s76.19,34.181,76.19,76.19S127.724,161.905,85.714,161.905z"/>
		<path style="fill:#333333;" d="M85.714,47.619c-21.005,0-38.095,17.09-38.095,38.095s17.09,38.095,38.095,38.095
			s38.095-17.09,38.095-38.095S106.719,47.619,85.714,47.619z M85.714,114.286c-15.757,0-28.571-12.814-28.571-28.571
			s12.814-28.571,28.571-28.571s28.571,12.814,28.571,28.571S101.471,114.286,85.714,114.286z"/>
		<path style="fill:#333333;" d="M85.714,71.429c-7.876,0-14.286,6.41-14.286,14.286S77.838,100,85.714,100S100,93.59,100,85.714
			S93.591,71.429,85.714,71.429z M85.714,90.476c-2.629,0-4.762-2.133-4.762-4.762s2.133-4.762,4.762-4.762s4.762,2.133,4.762,4.762
			S88.343,90.476,85.714,90.476z"/>
		<path style="fill:#333333;" d="M285.733,142.857c-37.681,0-71.976,14.691-97.533,38.61l-20.805-20.805l28.438-3.552l-1.181-9.448
			l-41.767,5.224l-5.224,41.767l9.448,1.181l3.552-28.438l20.805,20.805c-23.919,25.557-38.61,59.852-38.61,97.533v10.062
			L280.5,280.5l15.295-137.643H285.733z M188.195,194.929l77.624,77.624l-113.438,12.605
			C152.529,250.329,166.119,218.624,188.195,194.929z M272.552,265.819l-77.624-77.624c23.695-22.076,55.395-35.667,90.229-35.814
			L272.552,265.819z"/>
	</g>
</g>
<g>
</g>
<g>
</g>
<g>
</g>
<g>
</g>
<g>
</g>
<g>
</g>
<g>
</g>
<g>
</g>
<g>
</g>
<g>
</g>
<g>
</g>
<g>
</g>
<g>
</g>
<g>
</g>
<g>
</g>
</svg>
