<?xml version="1.0" encoding="iso-8859-1"?>
<!-- Generator: Adobe Illustrator 19.0.0, SVG Export Plug-In . SVG Version: 6.00 Build 0)  -->
<svg version="1.1" id="Layer_1" xmlns="http://www.w3.org/2000/svg" xmlns:xlink="http://www.w3.org/1999/xlink" x="0px" y="0px"
	 viewBox="0 0 295.239 295.239" style="enable-background:new 0 0 295.239 295.239;" xml:space="preserve">
<g>
	<g>
		<g>
			<rect x="114.037" y="19.048" style="fill:#333333;" width="38.095" height="9.524"/>
			<rect x="85.465" y="19.048" style="fill:#333333;" width="9.524" height="9.524"/>
			<path style="fill:#333333;" d="M118.799,247.619c-9.19,0-16.667,7.476-16.667,16.667c0,9.19,7.476,16.667,16.667,16.667
				s16.667-7.476,16.667-16.667C135.465,255.095,127.989,247.619,118.799,247.619z M118.799,271.429
				c-3.938,0-7.143-3.205-7.143-7.143c0-3.938,3.205-7.143,7.143-7.143s7.143,3.205,7.143,7.143
				C125.941,268.224,122.737,271.429,118.799,271.429z"/>
			<path style="fill:#333333;" d="M261.203,176.19l5.714-57.143h-57.643V23.81c0-13.129-10.681-23.81-23.81-23.81H52.132
				c-13.129,0-23.81,10.681-23.81,23.81v247.619c0,13.129,10.681,23.81,23.81,23.81h133.333c13.129,0,23.81-10.681,23.81-23.81
				v-76.19h19.924c1.971,5.529,7.21,9.524,13.41,9.524c7.876,0,14.286-6.41,14.286-14.286c0-6.2-3.995-11.438-9.524-13.41v-0.876
				h13.832V176.19z M229.199,185.714h-39.852c-1.438-4.033-4.614-7.21-8.648-8.648v-0.876h57.143v0.876
				C233.813,178.505,230.637,181.681,229.199,185.714z M180.703,190.476c0,2.624-2.133,4.762-4.762,4.762s-4.762-2.138-4.762-4.762
				s2.133-4.762,4.762-4.762S180.703,187.852,180.703,190.476z M52.132,9.524h133.333c7.876,0,14.286,6.41,14.286,14.286v14.286
				H37.846V23.81C37.846,15.933,44.256,9.524,52.132,9.524z M185.465,285.714H52.132c-7.876,0-14.286-6.41-14.286-14.286v-28.571
				h161.905v28.571C199.751,279.305,193.341,285.714,185.465,285.714z M199.751,233.333H37.846V47.619h161.905v71.429h-33.333v9.524
				h89.976l-3.81,38.095h-86.723l-9.524-76.19h-18.49V100h10.081l9.524,76.19h13.729v0.876c-5.529,1.971-9.524,7.21-9.524,13.41
				c0,7.876,6.41,14.286,14.286,14.286c6.2,0,11.438-3.995,13.41-9.524h10.4v38.095H199.751z M242.608,195.238
				c-2.629,0-4.762-2.138-4.762-4.762s2.133-4.762,4.762-4.762s4.762,2.138,4.762,4.762
				C247.37,193.1,245.237,195.238,242.608,195.238z"/>
			<rect x="171.18" y="142.857" style="fill:#333333;" width="76.19" height="9.524"/>
			<rect x="71.18" y="109.524" style="fill:#333333;" width="66.667" height="9.524"/>
			<rect x="47.37" y="109.524" style="fill:#333333;" width="14.286" height="9.524"/>
			<rect x="61.656" y="133.333" style="fill:#333333;" width="80.952" height="9.524"/>
			<rect x="99.751" y="157.143" style="fill:#333333;" width="47.619" height="9.524"/>
			<rect x="80.703" y="157.143" style="fill:#333333;" width="9.524" height="9.524"/>
		</g>
		<g>
			<rect x="56.894" y="119.048" style="fill:#F9BA48;" width="80.952" height="9.524"/>
		</g>
		<g>
			<rect x="71.18" y="142.857" style="fill:#F9BA48;" width="71.429" height="9.524"/>
		</g>
		<g>
			<rect x="90.227" y="166.667" style="fill:#F9BA48;" width="57.143" height="9.524"/>
		</g>
	</g>
</g>
<g>
</g>
<g>
</g>
<g>
</g>
<g>
</g>
<g>
</g>
<g>
</g>
<g>
</g>
<g>
</g>
<g>
</g>
<g>
</g>
<g>
</g>
<g>
</g>
<g>
</g>
<g>
</g>
<g>
</g>
</svg>
