<svg height="496pt" viewBox="0 -44 496 495" width="496pt" xmlns="http://www.w3.org/2000/svg"><g fill="#f0bc5e"><path d="m424 274.117188s11.28125-11.28125 20.480469-30.480469c6.238281-13.199219 11.519531-30 11.519531-49.519531 0-19.519532-5.28125-36.320313-11.519531-49.519532-9.199219-19.203125-20.480469-30.480468-20.480469-30.480468l-4-2.640626 4.800781-7.359374c3.277344-4.960938 8.800781-8 14.71875-8 5.359375 0 10.402344 2.398437 13.761719 6.640624l4.71875 5.839844c19.441406 24.316406 30 54.476563 30 85.519532 0 31.039062-10.558594 61.199218-30 85.519531l-4.71875 5.839843c-3.359375 4.238282-8.402344 6.640626-13.761719 6.640626-5.917969 0-11.441406-3.042969-14.71875-8l-4.800781-7.359376zm0 0"/><path d="m184.640625 239.074219c4.800781-11.597657 7.359375-24.160157 7.359375-36.957031 0-2.722657-.160156-5.359376-.398438-8h.398438c26.398438-10.5625 50.398438-26.402344 70.480469-46.480469l1.519531-1.519531 5.199219 5.199218c6.878906 6.878906 10.800781 16.320313 10.800781 26.078125 0 5.761719-1.359375 11.363281-3.921875 16.480469l-4.078125 8.242188c5.121094 5.117187 8 12.078124 8 19.277343v1.441407c0 7.199218-2.878906 14.160156-8 19.28125h-88l-.558594-.242188c.398438-.960938.796875-1.839844 1.199219-2.800781zm0 0"/><path d="m197.601562 80.757812c12-20 29.519532-36.160156 50.398438-46.640624l-.078125-.320313 55.839844-10.320313c-21.683594 15.4375-38 37.4375-46.480469 62.878907l-1.28125 3.761719-.320312 2.480468c-12-1.683594-24.238282-2.480468-36.480469-2.480468h-.960938c-8.796875 0-17.519531.398437-26.160156 1.277343l-.078125-1.277343zm0 0"/></g><path d="m464.265625 103.628906-4.730469-5.90625c-4.886718-6.109375-12.175781-9.605468-20-9.605468-8.6875 0-16.703125 4.34375-21.457031 11.621093l-17.832031 27.347657c-4.574219 7.039062-14.820313 9.054687-21.734375 4.324218-4.769531-3.261718-9.671875-6.253906-14.589844-9.207031l-20.632813-25.773437c-4.703124-5.875-7.289062-13.257813-7.289062-20.800782 0-12.6875 7.054688-24.097656 18.398438-29.777344l10.867187-5.429687c11.558594-5.769531 18.734375-17.386719 18.734375-30.304687v-9.617188l-162.03125 30.007812c-41.175781 7.625-76.753906 32.351563-98.527344 67.945313-43.914062 15.460937-83.945312 41.453125-115.9375 76.359375-4.839844 5.289062-7.503906 12.136719-7.503906 19.304688 0 7.167968 2.664062 14.015624 7.503906 19.304687 32.214844 35.140625 72.585938 61.261719 116.847656 76.679687l9.777344 11.167969c29.382813 33.589844 71.832032 52.847657 116.457032 52.847657 23.132812 0 46.109374 5.855468 66.4375 16.933593l66.976562 36.546875v-13.480468c0-17.707032-8.800781-34.144532-23.535156-43.976563l-3.9375-2.617187c-12.855469-8.574219-20.527344-22.910157-20.527344-38.359376 0-14.441406 6.886719-28.214843 18.449219-36.871093l4.046875-3.039063c6.808594-3.875 13.503906-7.976562 20.023437-12.433594 6.90625-4.726562 17.152344-2.710937 21.738281 4.328126l17.832032 27.34375c4.75 7.28125 12.765625 11.625 21.453125 11.625 7.824219 0 15.113281-3.503907 20-9.609376l4.730469-5.902343c20.453124-25.601563 31.726562-57.730469 31.726562-90.488281 0-32.761719-11.273438-64.890626-31.734375-90.488282zm-76.992187 46.488282c10.6875 0 20.550781-5.34375 26.382812-14.296876l8.007812-12.28125c2.960938 3.5625 7.480469 9.5625 11.976563 17.625l-.671875.671876c-11.816406 11.816406-27.152344 18.777343-43.640625 20.023437-.632813-3.945313-1.390625-7.855469-2.257813-11.75.066407-.007813.136719.007813.203126.007813zm53.453124 81.742187c-13.839843-12.390625-31.023437-19.847656-49.46875-21.390625.222657-2.785156.382813-5.5625.496094-8.351562h55.917969c-.894531 11.03125-3.566406 21.023437-6.945313 29.742187zm-48.972656-45.742187c-.113281-2.792969-.273437-5.578126-.496094-8.351563 18.460938-1.546875 35.664063-9.019531 49.503907-21.425781 3.359375 8.710937 6.023437 18.710937 6.910156 29.777344zm-166.882812-139.875 139.953125-25.917969c-1.679688 2.414062-3.960938 4.421875-6.71875 5.800781l-10.867188 5.429688c-16.796875 8.402343-27.238281 25.296874-27.238281 44.074218 0 10.511719 3.511719 20.765625 9.734375 29.207032-34.757813-14.839844-72.167969-22.71875-110.558594-22.71875h-.953125c-23.671875 0-47.046875 3.03125-69.664062 8.734374 19.402344-23.078124 46.152344-39.023437 76.3125-44.609374zm-205.566406 156.371093c-2.136719-2.328125-3.304688-5.34375-3.304688-8.496093 0-3.152344 1.167969-6.167969 3.304688-8.496094 50.96875-55.609375 123.480468-87.503906 198.917968-87.503906h.953125c53.816407 0 105.753907 16.054687 150.183594 46.421874l1.054687 4.234376c3.714844 14.816406 5.585938 30.0625 5.585938 45.34375 0 15.277343-1.871094 30.527343-5.574219 45.34375l-1.058593 4.230468c-44.4375 30.367188-96.367188 46.425782-150.191407 46.425782h-.953125c-19.230468 0-38.261718-2.097657-56.808594-6.105469l7.953126-7.953125c19.761718-19.757813 30.632812-46.015625 30.632812-73.941406 0-27.546876-13.160156-53.863282-35.191406-70.402344l-9.609375 12.800781c18.03125 13.527344 28.800781 35.0625 28.800781 57.601563 0 23.65625-9.207031 45.894531-25.9375 62.621093l-14.65625 14.65625c-3.535156-1.023437-7.054688-2.085937-10.542969-3.253906 22.152344-18.054687 35.136719-44.96875 35.136719-74.023437h-16c0 27.3125-13.734375 52.40625-36.742188 67.117187l-.289062.1875c-36.03125-14.9375-68.847656-37.554687-95.664062-66.808594zm328.351562 158.230469 3.9375 2.617188c5.8125 3.871093 10.292969 9.222656 13.09375 15.375l-40.007812-21.832032c-22.671876-12.359375-48.289063-18.886718-74.09375-18.886718-36.3125 0-70.914063-14.335938-96.699219-39.464844 20.953125 4.855468 42.519531 7.464844 64.335937 7.464844h.953125c36.558594 0 72.273438-7.066407 105.625-20.5625-3.066406 7.425781-4.800781 15.417968-4.800781 23.609374 0 20.800782 10.335938 40.121094 27.65625 51.679688zm66-108.433594c-5.832031-8.949218-15.695312-14.292968-26.382812-14.292968-.074219 0-.136719.015624-.203126.015624.867188-3.898437 1.617188-7.816406 2.257813-11.753906 16.488281 1.25 31.832031 8.210938 43.640625 20.023438l.640625.640625c-4.496094 8.058593-9 14.066406-11.953125 17.640625zm38.113281 22.195313-4.730469 5.902343c-3.855468 4.839844-12.160156 4.441407-15.542968-.75l-.742188-1.136718c5.804688-6.234375 33.246094-38.144532 33.246094-84.503906 0-46.359376-27.441406-78.273438-33.246094-84.503907l.742188-1.136719c3.390625-5.183593 11.6875-5.59375 15.542968-.753906l4.730469 5.90625c18.207031 22.757813 28.230469 51.34375 28.230469 80.488282 0 29.144531-10.023438 57.726562-28.230469 80.488281zm0 0"/><path d="m96 162.117188h16v16h-16zm0 0"/></svg>