<svg height="496pt" viewBox="0 0 496 496" width="496pt" xmlns="http://www.w3.org/2000/svg"><path d="m248 87.738281-160 160-23.519531-23.519531c-5.441407-5.4375-8.480469-12.796875-8.480469-20.480469 0-7.679687 3.039062-15.039062 8.480469-20.476562l119.039062-119.042969c5.441407-5.4375 12.800781-8.480469 20.480469-8.480469s15.039062 3.042969 20.480469 8.480469zm0 0" fill="#f0bc5e"/><path d="m488 410.09375c0-6.210938.769531-12.425781 2.265625-18.457031l2.992187-11.914063c1.820313-7.300781 2.742188-14.816406 2.742188-22.335937 0-26.375-11.816406-50.941407-32.398438-67.40625l-6.472656-5.175781c-2.527344-2.03125-4.960937-4.199219-7.21875-6.464844l-72.015625-72.015625c-.015625-.015625-.023437-.03125-.039062-.039063l-147.710938-147.714844c-6.976562-6.980468-16.265625-10.832031-26.144531-10.832031-6.902344 0-13.457031 1.984375-19.191406 5.488281l-5.496094-5.488281c-9.199219-9.183593-24.433594-10.132812-34.953125-2.949219l-5.046875-5.050781c-9.199219-9.183593-24.433594-10.132812-34.960938-2.949219l-29.039062-29.050781c-10.328125-10.316406-28.296875-10.316406-38.625 0l-28.6875 28.683594c-5.160156 5.15625-8 12.015625-8 19.316406 0 7.304688 2.839844 14.160157 8 19.3125l29.007812 29.007813c-3.222656 4.570312-5.007812 9.976562-5.007812 15.679687 0 7.304688 2.839844 14.160157 8 19.3125l5.007812 5.007813c-3.222656 4.570312-5.007812 9.976562-5.007812 15.679687 0 7.304688 2.839844 14.160157 8 19.3125l5.496094 5.496094c-3.519532 5.738281-5.496094 12.296875-5.496094 19.191406 0 9.875 3.839844 19.152344 10.832031 26.144531l55.9375 55.9375 11.308594-11.3125-55.933594-55.9375c-3.96875-3.964843-6.144531-9.230468-6.144531-14.832031 0-5.597656 2.175781-10.863281 6.144531-14.832031l119.023438-119.023438c7.921875-7.917968 21.734375-7.917968 29.65625 0l147.761719 147.761719c11.230468 11.246094 17.414062 26.199219 17.414062 42.09375 0 20.195313 7.855469 39.175781 22.144531 53.457031 26.992188 26.992188 41.855469 62.878907 41.855469 101.046876v65.296874c-77.40625-2.007812-149.894531-33.007812-204.847656-87.96875l-21.914063-21.910156-11.308593 11.3125 21.910156 21.910156c59.871094 59.882813 139.480468 92.855469 224.160156 92.855469 22.054688 0 40-17.941406 40-40v-9.292969l-4.105469-12.289062c-2.582031-7.761719-3.894531-15.855469-3.894531-24.0625zm-360-359.042969 4.6875 4.6875-76.6875 76.691407-4.6875-4.691407c-2.144531-2.132812-3.3125-4.972656-3.3125-8 0-3.023437 1.167969-5.863281 3.3125-8l60.6875-60.679687c4.28125-4.285156 11.71875-4.277344 16-.007813zm-112 4.6875c0-3.023437 1.167969-5.863281 3.3125-8l28.6875-28.679687c4.28125-4.277344 11.71875-4.277344 16 0l28.6875 28.679687-44.6875 44.691407-28.6875-28.691407c-2.144531-2.132812-3.3125-4.972656-3.3125-8zm48 116.691407-4.6875-4.691407c-2.144531-2.132812-3.3125-4.972656-3.3125-8 0-3.023437 1.167969-5.863281 3.3125-8l92.6875-92.679687c4.28125-4.277344 11.71875-4.277344 16 0l4.6875 4.679687zm412.726562 266.789062 3.273438 9.816406v6.703125c0 10.417969-6.710938 19.21875-16 22.53125v-64.015625c0-42.449218-16.527344-82.355468-46.542969-112.371094-11.265625-11.261718-17.457031-26.222656-17.457031-42.144531 0-3.140625-.257812-6.246093-.632812-9.316406l39.234374 39.230469c2.671876 2.671875 5.535157 5.230468 8.527344 7.632812l6.480469 5.183594c16.773437 13.414062 26.390625 33.429688 26.390625 54.917969 0 6.210937-.769531 12.425781-2.265625 18.457031l-2.992187 11.914062c-1.820313 7.300782-2.742188 14.8125-2.742188 22.335938 0 9.925781 1.585938 19.734375 4.726562 29.125zm0 0"/><path d="m112 495.738281c-61.761719 0-112-50.238281-112-112 0-61.757812 50.238281-112 112-112s112 50.242188 112 112c0 61.761719-50.238281 112-112 112zm0 0" fill="#f0bc5e"/><path d="m271.714844 168.03125 11.3125-11.3125 13.367187 13.367188-11.3125 11.3125zm0 0"/><path d="m432 453.925781v-39.683593c0-33.894532-13.199219-65.773438-37.167969-89.742188-17.304687-17.289062-26.832031-40.289062-26.832031-64.761719 0-11.476562-4.65625-22.710937-12.769531-30.832031l-45.574219-45.574219-11.3125 11.3125 45.578125 45.574219c5.132813 5.144531 8.078125 12.25 8.078125 19.519531 0 28.746094 11.191406 55.769531 31.511719 76.082031 20.953125 20.945313 32.488281 48.800782 32.488281 78.421876v39.683593zm0 0"/><path d="m112 303.738281c-44.113281 0-80 35.890625-80 80 0 44.113281 35.886719 80 80 80v-16c-35.289062 0-64-28.710937-64-64 0-35.285156 28.710938-64 64-64s64 28.714844 64 64c0 11.417969-4.894531 22.3125-13.441406 29.90625-8.648438 7.6875-19.824219 11.183594-31.453125 9.808594-19.679688-2.320313-35.105469-20.648437-35.105469-41.730469 0-12.125 9.855469-21.984375 21.984375-21.984375 9.9375 0 18.015625 8.082031 18.015625 18.019531v5.980469h16v-5.980469c0-18.761718-15.257812-34.019531-34.015625-34.019531-20.945313 0-37.984375 17.042969-37.984375 37.984375 0 29.539063 21.167969 54.3125 49.230469 57.617188 16.050781 1.871094 32.035156-3.128906 43.960937-13.734375 11.960938-10.625 18.808594-25.882813 18.808594-41.867188 0-44.109375-35.886719-80-80-80zm0 0"/></svg>