<svg height="496pt" viewBox="-80 0 496 496" width="496pt" xmlns="http://www.w3.org/2000/svg"><path d="m298.832031 317.097656-18.886719-6.730468-22.210937-6.085938-4.222656 15.4375 21.632812 5.898438 18.3125 6.535156c15.878907 5.679687 26.542969 20.816406 26.542969 37.679687v110.167969h-48v-64h-16v64h-176v-64h-16v64h-48v-110.167969c0-16.855469 10.664062-32 26.542969-37.671875l17.738281-6.351562 22.207031-6.089844-4.222656-15.4375-22.785156 6.269531-18.3125 6.539063c-22.230469 7.933594-37.167969 29.125-37.167969 52.742187v126.167969h336v-126.167969c0-23.617187-14.9375-44.808593-37.167969-52.734375zm0 0"/><g fill="#f0bc5e"><path d="m280 328c0-8.433594-4.367188-15.824219-10.953125-20.105469 4.441406-6.46875 5.648437-14.964843 2.425781-22.757812-3.226562-7.792969-10.089844-12.945313-17.808594-14.382813 1.625-7.683594-.503906-15.992187-6.472656-21.953125-3.785156-3.785156-8.503906-6.023437-13.414062-6.746093h-2.34375c-6.296875 11.707031-15.769532 21.417968-27.226563 28.105468h2.441407c.855468 4.609375 3.039062 9.015625 6.609374 12.582032 3.566407 3.570312 7.972657 5.753906 12.582032 6.609374-.976563 4.585938-.640625 9.496094 1.289062 14.152344 1.925782 4.65625 5.167969 8.367188 9.09375 10.921875-2.65625 3.863281-4.222656 8.535157-4.222656 13.574219s1.566406 9.710938 4.222656 13.566406c-3.925781 2.554688-7.167968 6.265625-9.09375 10.921875-1.929687 4.65625-2.265625 9.566407-1.289062 14.152344-4.609375.855469-9.015625 3.039063-12.582032 6.605469-3.570312 3.570312-5.753906 7.976562-6.609374 12.585937-4.585938-.976562-9.496094-.640625-14.152344 1.289063-4.65625 1.925781-8.367188 5.167968-10.921875 9.09375-3.863281-2.648438-8.535157-4.214844-13.574219-4.214844s-9.710938 1.566406-13.566406 4.222656c-2.554688-3.925781-6.265625-7.167968-10.921875-9.09375-4.65625-1.929687-9.566407-2.265625-14.152344-1.289062-.855469-4.609375-3.039063-9.015625-6.605469-12.582032-3.570312-3.570312-7.976562-5.753906-12.585937-6.609374.976562-4.585938.640625-9.496094-1.289063-14.152344-1.925781-4.65625-5.167968-8.367188-9.09375-10.921875 2.648438-3.863281 4.214844-8.535157 4.214844-13.574219s-1.566406-9.710938-4.222656-13.566406c3.925781-2.554688 7.167968-6.265625 9.09375-10.921875 1.929687-4.65625 2.265625-9.566407 1.289062-14.152344 4.609375-.855469 9.015625-3.039063 12.582032-6.605469 3.570312-3.570312 5.753906-7.976562 6.609374-12.585937h2.441407c-11.527344-6.726563-21.03125-16.519531-27.328125-28.320313h-.039063c-5.683593.304688-11.273437 2.617188-15.617187 6.960938-5.960938 5.960937-8.097656 14.28125-6.472656 21.953125-7.710938 1.4375-14.582032 6.589843-17.808594 14.382812-3.222656 7.792969-2.015625 16.289063 2.425781 22.757813-6.585937 4.273437-10.953125 11.664062-10.953125 20.097656s4.367188 15.824219 10.953125 20.105469c-4.441406 6.46875-5.648437 14.964843-2.425781 22.757812 3.226562 7.792969 10.089844 12.945313 17.808594 14.382813-1.625 7.683594.503906 15.992187 6.472656 21.953125 5.96875 5.960937 14.28125 8.097656 21.953125 6.472656 1.4375 7.710937 6.589843 14.585937 14.382812 17.808594 7.792969 3.222656 16.289063 2.015625 22.757813-2.425781 4.273437 6.578124 11.664062 10.945312 20.097656 10.945312s15.824219-4.367188 20.105469-10.953125c6.46875 4.441406 14.964843 5.648437 22.757812 2.425781 7.792969-3.226562 12.945313-10.089844 14.382813-17.808594 7.683594 1.625 15.992187-.503906 21.953125-6.472656 5.960937-5.96875 8.097656-14.28125 6.472656-21.953125 7.71875-1.4375 14.585937-6.589843 17.808594-14.382812 3.222656-7.792969 2.015625-16.289063-2.425781-22.757813 6.578124-4.273437 10.945312-11.664062 10.945312-20.097656zm0 0"/><path d="m72 96c6.175781 0 11.742188 2.398438 16 6.230469 4.257812-3.832031 9.824219-6.230469 16-6.230469s11.742188 2.398438 16 6.230469c4.257812-3.832031 9.824219-6.230469 16-6.230469s11.742188 2.398438 16 6.230469c4.257812-3.832031 9.824219-6.230469 16-6.230469s11.742188 2.398438 16 6.230469c4.257812-3.832031 9.824219-6.230469 16-6.230469s11.742188 2.398438 16 6.230469c4.257812-3.832031 9.824219-6.230469 16-6.230469s11.742188 2.398438 16 6.230469c4.257812-3.832031 9.824219-6.230469 16-6.230469 5.9375 0 11.296875 2.230469 15.488281 5.800781-5.160156-57.066406-53.074219-101.800781-111.488281-101.800781s-106.328125 44.734375-111.488281 101.800781c4.191406-3.570312 9.550781-5.800781 15.488281-5.800781zm0 0"/><path d="m72 144c-6.175781 0-11.742188-2.398438-16-6.230469v54.230469h8c0-17.671875 14.328125-32 32-32v-16h8c-6.175781 0-11.742188-2.398438-16-6.230469-4.257812 3.832031-9.824219 6.230469-16 6.230469zm0 0"/><path d="m264 144c-6.175781 0-11.742188-2.398438-16-6.230469-4.257812 3.832031-9.824219 6.230469-16 6.230469h8v16c17.671875 0 32 14.328125 32 32h8v-54.230469c-4.257812 3.832031-9.824219 6.230469-16 6.230469zm0 0"/></g><path d="m264 152c17.648438 0 32-14.351562 32-32s-14.351562-32-32-32c-5.640625 0-11.144531 1.519531-16 4.367188-9.710938-5.6875-22.289062-5.6875-32 0-9.710938-5.6875-22.289062-5.6875-32 0-9.710938-5.6875-22.289062-5.6875-32 0-9.710938-5.6875-22.289062-5.6875-32 0-9.710938-5.6875-22.289062-5.6875-32 0-4.855469-2.847657-10.359375-4.367188-16-4.367188-17.648438 0-32 14.351562-32 32s14.351562 32 32 32c5.640625 0 11.144531-1.519531 16-4.367188v5.175782c-18.230469 3.71875-32 19.871094-32 39.191406 0 20.527344 15.609375 37.304688 35.542969 39.550781 10.082031 32.648438 40.535156 56.449219 76.457031 56.449219s66.375-23.800781 76.457031-56.449219c19.933594-2.246093 35.542969-19.023437 35.542969-39.550781 0-19.3125-13.769531-35.472656-32-39.191406v-5.175782c4.855469 2.847657 10.359375 4.367188 16 4.367188zm-181.351562-20.167969c-2.121094 1.902344-5.679688 4.167969-10.648438 4.167969-8.824219 0-16-7.175781-16-16s7.175781-16 16-16c4.96875 0 8.527344 2.265625 10.648438 4.167969l5.351562 4.824219 5.351562-4.824219c2.121094-1.902344 5.679688-4.167969 10.648438-4.167969s8.527344 2.265625 10.648438 4.167969l5.351562 4.824219 5.351562-4.824219c2.121094-1.902344 5.679688-4.167969 10.648438-4.167969s8.527344 2.265625 10.648438 4.167969l5.351562 4.824219 5.351562-4.824219c2.121094-1.902344 5.679688-4.167969 10.648438-4.167969s8.527344 2.265625 10.648438 4.167969l5.351562 4.824219 5.351562-4.824219c2.121094-1.902344 5.679688-4.167969 10.648438-4.167969s8.527344 2.265625 10.648438 4.167969l5.351562 4.824219 5.351562-4.824219c2.121094-1.902344 5.679688-4.167969 10.648438-4.167969s8.527344 2.265625 10.648438 4.167969l5.351562 4.824219 5.351562-4.824219c2.121094-1.902344 5.679688-4.167969 10.648438-4.167969 8.824219 0 16 7.175781 16 16s-7.175781 16-16 16c-4.96875 0-8.527344-2.265625-10.648438-4.167969l-5.351562-4.824219-5.351562 4.824219c-2.121094 1.902344-5.679688 4.167969-10.648438 4.167969s-8.527344-2.265625-10.648438-4.167969l-5.351562-4.824219-5.351562 4.824219c-2.121094 1.902344-5.679688 4.167969-10.648438 4.167969s-8.527344-2.265625-10.648438-4.167969l-5.351562-4.824219-5.351562 4.824219c-2.121094 1.902344-5.679688 4.167969-10.648438 4.167969s-8.527344-2.265625-10.648438-4.167969l-5.351562-4.824219-5.351562 4.824219c-2.121094 1.902344-5.679688 4.167969-10.648438 4.167969s-8.527344-2.265625-10.648438-4.167969l-5.351562-4.824219-5.351562 4.824219c-2.121094 1.902344-5.679688 4.167969-10.648438 4.167969s-8.527344-2.265625-10.648438-4.167969l-5.351562-4.824219zm-10.648438 60.167969c0-10.414062 6.710938-19.214844 16-22.527344v38.527344c0 2.238281.152344 4.441406.335938 6.632812-9.464844-3.21875-16.335938-12.097656-16.335938-22.632812zm192 0c0 10.535156-6.871094 19.414062-16.335938 22.632812.183594-2.191406.335938-4.394531.335938-6.632812v-38.527344c9.289062 3.3125 16 12.113282 16 22.527344zm-32 16c0 35.289062-28.710938 64-64 64s-64-28.710938-64-64v-56.105469c5.574219 0 11.144531-1.421875 16-4.261719 9.710938 5.6875 22.289062 5.6875 32 0 9.710938 5.6875 22.289062 5.6875 32 0 9.710938 5.6875 22.289062 5.6875 32 0 4.855469 2.839844 10.425781 4.261719 16 4.261719zm0 0"/><path d="m64 112h16v16h-16zm0 0"/><path d="m96 112h16v16h-16zm0 0"/><path d="m128 112h16v16h-16zm0 0"/><path d="m160 112h16v16h-16zm0 0"/><path d="m192 112h16v16h-16zm0 0"/><path d="m224 112h16v16h-16zm0 0"/><path d="m256 112h16v16h-16zm0 0"/><path d="m216 168c0 4.417969-3.582031 8-8 8s-8-3.582031-8-8 3.582031-8 8-8 8 3.582031 8 8zm0 0"/><path d="m136 168c0 4.417969-3.582031 8-8 8s-8-3.582031-8-8 3.582031-8 8-8 8 3.582031 8 8zm0 0"/><path d="m168 232c-8.824219 0-16-7.175781-16-16h-16c0 17.648438 14.351562 32 32 32s32-14.351562 32-32h-16c0 8.824219-7.175781 16-16 16zm0 0"/></svg>