<svg height="497pt" viewBox="-112 0 497 497.832" width="497pt" xmlns="http://www.w3.org/2000/svg"><path d="m54.152344 468.34375c1.289062 12.214844 11.589844 21.488281 23.871094 21.488281h132.785156c12.28125 0 22.582031-9.273437 23.871094-21.488281l21.320312-202.527344c-55.902344-.152344-119.679688-31.984375-159.585938-31.984375-40 0-64 24-64 24l-.390624.265625zm0 0" fill="#f0bc5e"/><path d="m194.089844 177.832031 31.605468-165.929687-47.617187-11.902344-32.335937 177.832031h-25.527344c5.074218-6.703125 8.199218-14.960937 8.199218-24 0-22.054687-17.941406-40-40-40-1.492187 0-2.917968.28125-4.375.441407-7.589843-22.554688-11.625-46.320313-11.625-70.105469v-2.335938h-16v2.335938c0 14.511719 1.433594 29.015625 4.113282 43.289062-5.933594-3.488281-12.75-5.625-20.113282-5.625h-40v8c0 22.054688 17.945313 40 40 40h16.210938c-5.082031 6.703125-8.210938 14.960938-8.210938 24 0 9.039063 3.128907 17.296875 8.210938 24h-41.089844l30.664063 291.359375c1.722656 16.328125 15.410156 28.640625 31.832031 28.640625h132.785156c16.421875 0 30.113282-12.3125 31.832032-28.648437l30.648437-291.351563zm-9.632813-123.496093 19.039063-11.425782-3.558594 18.683594-18.859375 11.308594zm-7.183593 39.511718 18.65625-11.191406-3.5625 18.671875-18.472657 11.078125zm-7.183594 39.503906 18.269531-10.960937-3.558594 18.679687-18.089843 10.851563zm35.0625-110.085937-16.886719 10.125 2.496094-13.726563zm-42.25 149.605469 17.882812-10.726563-2.992187 15.6875h-15.800781zm-145.117188-75.039063h22.628906c10.433594 0 19.328126 6.6875 22.632813 16h-22.632813c-10.429687 0-19.324218-6.6875-22.628906-16zm46.628906 56c0-8.023437 3.992188-15.097656 10.058594-19.457031 2.101563 5.082031 4.328125 10.113281 6.785156 15.03125l14.308594-7.160156c-2.015625-4.023438-3.878906-8.125-5.636718-12.269532 12.519531.808594 22.484374 11.144532 22.484374 23.855469 0 13.230469-10.765624 24-24 24-13.230468 0-24-10.769531-24-24zm143.265626 40-14.054688 159.296875 15.933594 1.40625 14.183594-160.703125h31.792968l-25.625 243.464844c-4.949218 7.757813-13.453125 12.535156-22.789062 12.535156h-5.96875l6.296875-71.296875-15.9375-1.40625-6.421875 72.703125h-103.378906c-9.335938 0-17.839844-4.777343-22.789063-12.535156l-25.625-243.464844zm3.128906 288h-132.785156c-8.207032 0-15.054688-6.160156-15.917969-14.320312l-.722657-6.855469c6.144532 3.289062 13.066407 5.175781 20.328126 5.175781h125.410156c7.261718 0 14.183594-1.886719 20.328125-5.175781l-.722657 6.847656c-.863281 8.167969-7.710937 14.328125-15.917968 14.328125zm0 0"/></svg>