<svg height="491pt" viewBox="-122 0 491 491.568" width="491pt" xmlns="http://www.w3.org/2000/svg"><g fill="#f0bc5e"><path d="m162.820312 438.847656 18.558594 18.558594c-12.078125 8.242188-25.917968 14-40.878906 16.5625l-6.398438-6.402344zm0 0"/><path d="m111.539062 467.566406-6.398437 6.402344c-14.960937-2.5625-28.800781-8.320312-40.878906-16.5625l18.558593-18.558594zm0 0"/><path d="m71.539062 427.566406-19.757812 19.761719c-10.082031-9.441406-18.242188-20.800781-23.921875-33.519531l14.960937-14.960938zm0 0"/><path d="m18.980469 375.089844 12.558593 12.476562-9.4375 9.441406c-1.761718-7.121093-2.882812-14.398437-3.121093-21.917968zm0 0"/><path d="m71.539062 347.566406-28.71875 28.722656-24-24v-9.441406l24-24zm0 0"/><path d="m94.089844 427.566406 28.71875-28.71875 28.71875 28.71875-28.71875 28.71875zm0 0"/><path d="m134.089844 387.566406 28.71875-28.71875 28.71875 28.71875-28.71875 28.71875zm0 0"/><path d="m202.820312 398.847656 14.960938 14.960938c-5.679688 12.71875-13.839844 24.078125-23.921875 33.519531l-19.757813-19.761719zm0 0"/><path d="m226.660156 375.089844c-.238281 7.519531-1.359375 14.796875-3.121094 21.917968l-9.4375-9.441406zm0 0"/><path d="m226.820312 342.847656v9.441406l-24 24-28.71875-28.722656 28.71875-28.71875zm0 0"/><path d="m223.539062 298.128906c1.761719 7.117188 2.882813 14.398438 3.121094 21.917969l-12.558594-12.480469zm0 0"/><path d="m217.78125 281.328125-14.960938 14.960937-28.71875-28.722656 19.757813-19.757812c10.082031 9.4375 18.242187 20.800781 23.921875 33.519531zm0 0"/><path d="m94.089844 267.566406 28.71875-28.71875 28.722656 28.71875-28.722656 28.722656zm0 0"/><path d="m54.089844 307.566406 28.71875-28.71875 28.722656 28.71875-28.722656 28.71875zm0 0"/><path d="m18.980469 320.046875c.238281-7.519531 1.359375-14.800781 3.121093-21.917969l9.4375 9.4375zm0 0"/><path d="m71.539062 267.566406-28.71875 28.722656-14.960937-14.960937c5.679687-12.71875 13.839844-24.082031 23.921875-33.519531zm0 0"/><path d="m111.539062 227.566406-28.71875 28.722656-18.558593-18.5625c12.078125-8.238281 25.917969-14 40.878906-16.558593zm0 0"/><path d="m181.378906 237.726562-18.558594 18.5625-28.71875-28.722656 6.398438-6.398437c14.960938 2.558593 28.800781 8.320312 40.878906 16.558593zm0 0"/><path d="m134.089844 307.566406 28.71875-28.71875 28.722656 28.71875-28.722656 28.722656zm0 0"/><path d="m94.089844 347.566406 28.71875-28.71875 28.722656 28.71875-28.722656 28.71875zm0 0"/><path d="m54.089844 387.566406 28.71875-28.71875 28.722656 28.71875-28.722656 28.71875zm0 0"/></g><path d="m203.085938 234.625.078124-.457031c4.832032-29.03125 14.976563-56.566407 30.496094-82.457031l7.34375-12.144532h-23.65625c-3.992187 0-7.953125.1875-11.894531.457032 5.269531-16.558594 13.0625-32.054688 23.550781-46.046876l17.367188-23.136718-59.320313 13.679687c1.113281-24.039062 6.210938-47.542969 15.191407-69.992187l5.816406-14.527344-37.382813 9.359375c-23.351562 5.832031-43.375 20.664063-55.96875 40.992187-15.191406-11.472656-32.152343-20.648437-50.542969-26.785156l-24.640624-8.199218 5.71875 22.847656c2.890624 11.554687 4.625 23.371094 5.273437 35.257812-9.398437-2.464844-18.96875-4.382812-28.695313-5.601562l-21.535156-2.695313 24.3125 30.398438c10.222656 12.777343 16.4375 28.410156 17.894532 44.648437-4.710938-.382812-9.433594-.65625-14.199219-.65625h-9.472657l-13.746093.632813 7.265625 12.121093c15.160156 25.273438 25.296875 52.816407 30.136718 81.839844l.078126.457032c-24.335938 21.984374-39.734376 53.664062-39.734376 88.949218v48c0 66.167969 53.832032 120 120 120 66.167969 0 120-53.832031 120-120v-48c0-35.285156-15.398437-66.964844-39.734374-88.941406zm-14.050782-11.039062c-6.75-4.488282-13.992187-8.265626-21.605468-11.328126-8.875-12.730468-19.289063-24.019531-30.9375-33.671874 23.085937-14.328126 49.273437-22.210938 76.566406-22.953126-11.34375 21.375-19.277344 44.191407-24.023438 67.953126zm19.121094-127.507813c-8.96875 14.257813-15.632812 29.722656-20.082031 46.082031-23.246094 4.039063-45.316407 12.9375-65.167969 26.265625-1.871094-1.257812-3.726562-2.539062-5.644531-3.722656 11.230469-32.183594 37.949219-56.398437 71.636719-64.183594zm-33.59375-71.199219 7.617188-1.902344c-6.992188 21.429688-10.625 43.648438-11.144532 66.261719-4.941406 1.824219-9.710937 3.976563-14.304687 6.417969-8.367188-12.984375-18.300781-24.710938-29.574219-34.976562 10.304688-17.785157 27.375-30.792969 47.40625-35.800782zm-112.527344 14.890625c33.527344 11.902344 61.90625 34.566407 81.144532 64.351563-4.136719 3.007812-8.0625 6.285156-11.75 9.808594-19.570313-15.472657-41.410157-27.503907-64.753907-35.578126-.335937-12.984374-1.839843-25.917968-4.640625-38.582031zm-23.941406 47.109375c30.070312 6.546875 58.199219 19.832032 82.542969 38.875-7.367188 9.300782-13.304688 19.8125-17.578125 31.214844-13.992188-6.871094-28.925782-11.847656-44.460938-14.65625-1.074218-20.066406-8.203125-39.519531-20.503906-55.433594zm-5.546875 68.746094c41.800781 1.152344 80.816406 19.183594 108.714844 49.511719-6.027344-.9375-12.152344-1.570313-18.441407-1.570313-24.464843 0-47.222656 7.394532-66.214843 20.019532-4.722657-23.617188-12.601563-46.328126-24.058594-67.960938zm194.273437 215.941406c0 20.28125-5.921874 39.152344-16 55.167969v-7.167969h-16v16h9.800782c-19.050782 24.304688-48.601563 40-81.800782 40-33.199218 0-62.753906-15.695312-81.800781-40h9.800781v-16h-16v7.167969c-10.082031-16.015625-16-34.894531-16-55.167969v-48c0-20.277344 5.917969-39.152344 16-55.167968v7.167968h16v-16h-9.800781c19.054688-24.300781 48.601563-40 81.800781-40 33.199219 0 62.75 15.699219 81.800782 40h-9.800782v16h16v-7.167968c10.078126 16.015624 16 34.898437 16 55.167968zm0 0"/><path d="m114.820312 339.566406h16v16h-16zm0 0"/><path d="m194.820312 339.566406h16v16h-16zm0 0"/><path d="m34.820312 339.566406h16v16h-16zm0 0"/><path d="m114.820312 419.566406h16v16h-16zm0 0"/><path d="m114.820312 259.566406h16v16h-16zm0 0"/></svg>