<svg height="496pt" viewBox="0 0 496.02887 496" width="496pt" xmlns="http://www.w3.org/2000/svg"><path d="m104.027344 392.015625-16 56 .800781 3.117187c-52.398437 13.363282-80.800781 28.882813-80.800781 28.882813h-8.0000002v-288h57.2812502c-42.320313 30.71875-60.800782 85.597656-41.757813 136l60.558594-21.28125 42.480469-14.878906 1.4375 4.160156 32 96zm0 0" fill="#f0bc5e"/><path d="m181.707031 269.773438 66.320313-23.277344c-10.398438-27.441406-30.160156-48.960938-54.476563-62.480469h302.476563v296h-8s-72.71875-39.679687-200.078125-46.882813l.078125-1.117187-16-40h-93.359375l-34.640625-104-1.597656-4.480469zm0 0" fill="#f0bc5e"/><path d="m224.027344 96.015625c26.472656 0 48-21.527344 48-48s-21.527344-48-48-48c-26.46875 0-48 21.527344-48 48s21.53125 48 48 48zm0-80c17.648437 0 32 14.351563 32 32s-14.351563 32-32 32c-17.644532 0-32-14.351563-32-32s14.355468-32 32-32zm0 0"/><path d="m482.171875 242.550781c-2.359375 2.496094-6.039063 5.464844-10.167969 5.464844s-7.808594-2.96875-10.238281-5.546875c-6.480469-6.839844-14.007813-10.453125-21.777344-10.453125 0 0 0 0-.007812 0-7.769531 0-15.304688 3.621094-21.824219 10.511719-2.359375 2.496094-6.046875 5.472656-10.167969 5.472656-4.128906 0-7.816406-2.976562-10.175781-5.480469-6.488281-6.855469-14.023438-10.488281-21.808594-10.488281-7.773437 0-15.3125 3.625-21.808594 10.488281-2.367187 2.496094-6.046874 5.480469-10.175781 5.480469-4.125 0-7.808593-2.976562-10.167969-5.472656l-11.621093 10.992187c6.488281 6.855469 14.023437 10.488281 21.796875 10.488281 7.777344 0 15.3125-3.625 21.808594-10.496093 2.367187-2.496094 6.050781-5.480469 10.175781-5.480469 4.128906 0 7.816406 2.984375 10.175781 5.480469 6.488281 6.855469 14.023438 10.480469 21.800781 10.488281h.007813c7.769531 0 15.304687-3.625 21.832031-10.511719 2.351563-2.496093 6.03125-5.472656 10.160156-5.472656 4.128907 0 7.808594 2.976563 10.242188 5.535156 6.46875 6.847657 14.007812 10.464844 21.773437 10.464844 7.769532 0 15.304688-3.617187 21.785156-10.464844zm0 0"/><path d="m357.789062 317.550781-11.617187-11c-2.359375 2.496094-6.039063 5.464844-10.167969 5.464844s-7.808594-2.96875-10.238281-5.539063c-6.480469-6.847656-14.015625-10.460937-21.785156-10.460937s-15.304688 3.621094-21.824219 10.503906c-2.359375 2.496094-6.046875 5.480469-10.175781 5.480469-4.128907 0-7.816407-2.984375-10.175781-5.488281-12.976563-13.714844-30.632813-13.714844-43.609376-.007813l-.167968.183594c-2.367188 2.464844-5.984375 5.304688-10.015625 5.304688-4.125-.007813-7.816407-2.984376-10.175781-5.488282l-11.625 11c6.488281 6.847656 14.019531 10.480469 21.800781 10.488282 7.777343 0 15.3125-3.625 21.800781-10.480469l.183594-.191407c2.367187-2.464843 5.976562-5.296874 10-5.296874 4.136718 0 7.824218 2.984374 10.183594 5.488281 6.488281 6.847656 14.023437 10.480469 21.800781 10.488281 7.777343 0 15.3125-3.625 21.832031-10.511719 2.367188-2.496093 6.046875-5.472656 10.167969-5.472656 4.121093 0 7.808593 2.96875 10.242187 5.535156 6.476563 6.847657 14.015625 10.464844 21.78125 10.464844 7.769532 0 15.304688-3.617187 21.785156-10.464844zm0 0"/><path d="m344.011719 384c7.777343 0 15.3125-3.625 21.800781-10.480469l.183594-.191406c2.367187-2.464844 5.976562-5.296875 10-5.296875 4.136718 0 7.824218 2.984375 10.183594 5.488281 6.488281 6.847657 14.023437 10.480469 21.800781 10.488281 7.777343 0 15.3125-3.625 21.832031-10.511718 2.367188-2.503906 6.046875-5.480469 10.167969-5.480469 4.121093 0 7.808593 2.96875 10.242187 5.535156 6.476563 6.847657 14.015625 10.464844 21.78125 10.464844 7.769532 0 15.304688-3.617187 21.785156-10.464844l-11.617187-11c-2.359375 2.496094-6.039063 5.464844-10.167969 5.464844s-7.808594-2.96875-10.238281-5.539063c-6.480469-6.847656-14.015625-10.460937-21.785156-10.460937s-15.304688 3.621094-21.824219 10.503906c-2.359375 2.496094-6.046875 5.480469-10.175781 5.480469-4.128907 0-7.816407-2.984375-10.175781-5.488281-12.984376-13.714844-30.632813-13.714844-43.609376-.007813l-.167968.183594c-2.367188 2.464844-5.984375 5.304688-10.015625 5.304688-4.125-.007813-7.816407-2.984376-10.175781-5.488282l-11.625 11c6.480468 6.863282 14.019531 10.488282 21.800781 10.496094zm0 0"/><path d="m328.027344 448.015625h16v16h-16zm0 0"/><path d="m272.027344 448.015625h16v16h-16zm0 0"/><path d="m216.027344 448.015625h16v16h-16zm0 0"/><path d="m160.027344 448.015625h16v16h-16zm0 0"/><path d="m496.027344 176.015625h-21.070313l-83.441406-70.601563c-13.253906-11.222656-30.117187-17.398437-47.488281-17.398437-17.367188 0-34.230469 6.175781-47.488282 17.398437l-83.4375 70.601563h-17.855468c-27.28125-14.488281-59.664063-19.632813-91.527344-12.914063.132812-1.023437.308594-2.03125.308594-3.085937 0-13.234375-10.765625-24-24-24-13.230469 0-24 10.765625-24 24 0 7.207031 3.257812 13.597656 8.296875 18-3.246094 1.863281-6.359375 3.886719-9.40625 6h-54.8906252v16h35.9687502c-9.910156 10.167969-18.207032 21.886719-24.335938 35.03125-14.183594 30.429687-15.472656 64.449219-3.625 95.800781l2.761719 7.304688 102.816406-36.058594 27.3125 81.921875h-31.359375l-22.050781-58.816406-14.984375 5.625 23.082031 61.527343-15.015625 52.566407c-47.890625 12.824219-74.417968 26.992187-76.402344 28.066406l-4.1679682 2.277344v20.753906h496.0000002v-20.753906l-4.167969-2.269531c-3.277344-1.792969-73.964844-39.539063-197.816406-47.488282l-16.597657-41.488281h-92.984374l-31.863282-95.59375 105.808594-37.101563-2.898438-7.664062c-7.773437-20.585938-20.535156-38.066406-36.480468-51.640625h277zm-406.222656 19.808594 3.039062-6.523438 6.519531 3.042969c32.175781 15 57.1875 40.628906 71.570313 72.695312l-89.550782 31.40625c-9.234374-33.496093-6.417968-68.789062 8.421876-100.621093zm-9.777344-43.808594c4.410156 0 8 3.589844 8 8 0 4.40625-3.589844 8-8 8-4.40625 0-8-3.59375-8-8 0-4.410156 3.59375-8 8-8zm-53.863282 89.789063c10.234376-21.957032 27.167969-39.582032 48.496094-51.160157-15.992187 35.242188-18.816406 74.167969-8.367187 111.089844l-45.785157 16.054687c-7.519531-25.175781-5.574218-51.878906 5.65625-75.984374zm212.128907 182.304687c-37.929688.503906-71.6875 3.890625-100.945313 8.679687l5.457032-32.773437h90.664062zm-128.230469-24.09375h16.527344l-5.960938 35.75c-7.734375 1.488281-15.113281 3.058594-22.121094 4.6875zm313.964844 80v-8h-16v8h-40v-8h-16v8h-40v-8h-16v8h-40v-8h-16v8h-40v-8h-16v8h-40v-8h-16v8h-40v-8h-16v8h-44.992188c31.007813-13.121094 108.328125-40 220.992188-40 112.378906 0 189.839844 26.878906 220.945312 40zm-147.589844-55.441406c-7.105469-.28125-14.410156-.421875-21.832031-.496094l-4.816407-24.0625h16.824219zm-108.839844-40.558594h-9.800781l-29.070313-87.21875 8.773438-3.078125zm69.765625-142.273437-51.320312 18c-15.628907-35.648438-43.0625-64.183594-78.429688-81.121094 52.871094-10.902344 107.390625 15.097656 129.75 63.121094zm69.511719-124.121094c10.371094-8.773438 23.5625-13.605469 37.152344-13.605469 13.59375 0 26.785156 4.832031 37.152344 13.605469l69.007812 58.394531h-212.320312zm0 0"/></svg>