<svg height="496pt" viewBox="0 0 496 496" width="496pt" xmlns="http://www.w3.org/2000/svg"><g fill="#f0bc5e"><path d="m454.617188 392c-20.695313 0-20.695313-16-41.386719-16-20.679688 0-20.679688 16-41.359375 16-20.664063 0-20.664063-16-41.320313-16-20.671875 0-20.671875 16-41.34375 16-20.664062 0-20.664062-16-41.335937-16-20.664063 0-20.664063 16-41.335938 16-20.664062 0-20.664062-16-41.335937-16-20.65625 0-20.65625 16-41.3125 16-20.648438 0-20.648438-16-41.292969-16-20.65625 0-20.65625 16-41.320312 16-20.632813 0-20.632813-16-41.273438-16v120h496v-120c-20.695312 0-20.695312 16-41.382812 16zm0 0"/><path d="m348 272c-9.734375 0-19.257812-3.945312-26.144531-10.832031-4.375-4.375-9.398438-7.992188-14.945313-10.769531l-18.8125-9.421876 18.824219-12.542968c12.207031-8.128906 26.40625-12.433594 41.078125-12.433594 15.441406 0 28 12.558594 28 28s-12.558594 28-28 28zm0 0"/><path d="m288 78.945312v-14.945312c0-16.945312 4.007812-33.902344 11.574219-49.046875 4.65625-9.320313 13.777343-14.953125 23.921875-14.953125h1.910156c14.664062 0 26.59375 11.929688 26.59375 26.59375 0 11.46875-7.3125 21.605469-18.183594 25.230469-6.816406 2.273437-13.296875 5.449219-19.273437 9.433593zm0 0"/><path d="m64 102.945312-26.535156-17.6875c-5.976563-3.984374-12.464844-7.160156-19.273438-9.425781-10.878906-3.632812-18.191406-13.769531-18.191406-25.238281 0-14.664062 11.929688-26.59375 26.59375-26.59375h1.910156c10.144532 0 19.257813 5.632812 23.792969 14.710938 7.695313 15.386718 11.703125 32.34375 11.703125 49.289062zm0 0"/></g><path d="m454.617188 480c-7.617188 0-11.050782-2.65625-15.800782-6.328125-5.578125-4.3125-12.503906-9.671875-25.59375-9.671875-13.070312 0-20 5.359375-25.566406 9.671875-4.753906 3.671875-8.175781 6.328125-15.785156 6.328125-7.589844 0-11.015625-2.65625-15.757813-6.328125-5.570312-4.304687-12.496093-9.671875-25.5625-9.671875-13.070312 0-20 5.367188-25.566406 9.671875-4.746094 3.671875-8.175781 6.328125-15.777344 6.328125-7.597656 0-11.023437-2.65625-15.765625-6.328125-5.578125-4.304687-12.496094-9.671875-25.570312-9.671875-13.0625 0-20 5.367188-25.558594 9.671875-4.746094 3.671875-8.175781 6.328125-15.777344 6.328125-7.597656 0-11.023437-2.65625-15.765625-6.328125-5.5625-4.304687-12.488281-9.671875-25.5625-9.671875-13.0625 0-19.992187 5.367188-25.550781 9.671875-4.746094 3.671875-8.167969 6.328125-15.761719 6.328125-7.582031 0-11.007812-2.65625-15.75-6.320312-5.558593-4.3125-12.480469-9.679688-25.542969-9.679688-13.066406 0-19.992187 5.367188-25.554687 9.671875-4.742187 3.671875-8.175781 6.328125-15.765625 6.328125-7.585938 0-11-2.648438-15.738281-6.320312-5.558594-4.3125-12.488281-9.679688-25.542969-9.679688v16c7.585938 0 11 2.648438 15.734375 6.320312 5.570313 4.3125 12.488281 9.679688 25.546875 9.679688 13.0625 0 19.992188-5.367188 25.558594-9.671875 4.746094-3.671875 8.160156-6.328125 15.761718-6.328125 7.582032 0 11.007813 2.65625 15.75 6.320312 5.558594 4.3125 12.488282 9.679688 25.542969 9.679688 13.058594 0 19.992188-5.367188 25.554688-9.671875 4.742187-3.671875 8.167969-6.328125 15.757812-6.328125 7.601563 0 11.023438 2.65625 15.769531 6.328125 5.566407 4.304687 12.496094 9.671875 25.558594 9.671875 13.074219 0 20-5.367188 25.570313-9.671875 4.742187-3.671875 8.167969-6.328125 15.765625-6.328125 7.601562 0 11.023437 2.65625 15.769531 6.328125 5.566406 4.304687 12.496094 9.671875 25.566406 9.671875 13.074219 0 20-5.367188 25.570313-9.671875 4.742187-3.671875 8.175781-6.328125 15.773437-6.328125 7.59375 0 11.015625 2.65625 15.761719 6.328125 5.566406 4.304687 12.496094 9.671875 25.558594 9.671875 13.074218 0 20.007812-5.367188 25.578125-9.671875 4.742187-3.671875 8.175781-6.328125 15.773437-6.328125 7.617188 0 11.050782 2.65625 15.800782 6.328125 5.578124 4.3125 12.511718 9.671875 25.59375 9.671875 13.078124 0 20.015624-5.359375 25.589843-9.671875 4.746094-3.671875 8.175781-6.328125 15.792969-6.328125v-16c-13.078125 0-20.007812 5.359375-25.585938 9.671875-4.75 3.671875-8.183593 6.328125-15.796874 6.328125zm0 0"/><path d="m454.617188 432c-7.617188 0-11.050782-2.65625-15.800782-6.328125-5.578125-4.3125-12.503906-9.671875-25.59375-9.671875-13.070312 0-20 5.359375-25.566406 9.671875-4.753906 3.671875-8.175781 6.328125-15.785156 6.328125-7.589844 0-11.015625-2.65625-15.757813-6.328125-5.570312-4.304687-12.496093-9.671875-25.5625-9.671875-13.070312 0-20 5.367188-25.566406 9.671875-4.746094 3.671875-8.175781 6.328125-15.777344 6.328125-7.597656 0-11.023437-2.65625-15.765625-6.328125-5.578125-4.304687-12.496094-9.671875-25.570312-9.671875-13.0625 0-20 5.367188-25.558594 9.671875-4.746094 3.671875-8.175781 6.328125-15.777344 6.328125-7.597656 0-11.023437-2.65625-15.765625-6.328125-5.5625-4.304687-12.488281-9.671875-25.5625-9.671875-13.0625 0-19.992187 5.367188-25.550781 9.671875-4.746094 3.671875-8.167969 6.328125-15.761719 6.328125-7.582031 0-11.007812-2.65625-15.75-6.320312-5.558593-4.3125-12.480469-9.679688-25.542969-9.679688-13.066406 0-19.992187 5.367188-25.554687 9.671875-4.742187 3.671875-8.175781 6.328125-15.765625 6.328125-7.585938 0-11-2.648438-15.738281-6.320312-5.558594-4.3125-12.488281-9.679688-25.542969-9.679688v16c7.585938 0 11 2.648438 15.734375 6.320312 5.570313 4.3125 12.488281 9.679688 25.546875 9.679688 13.0625 0 19.992188-5.367188 25.558594-9.671875 4.746094-3.671875 8.160156-6.328125 15.761718-6.328125 7.582032 0 11.007813 2.65625 15.75 6.320312 5.558594 4.3125 12.488282 9.679688 25.542969 9.679688 13.058594 0 19.992188-5.367188 25.554688-9.671875 4.742187-3.671875 8.167969-6.328125 15.757812-6.328125 7.601563 0 11.023438 2.65625 15.769531 6.328125 5.566407 4.304687 12.496094 9.671875 25.558594 9.671875 13.074219 0 20-5.367188 25.570313-9.671875 4.742187-3.671875 8.167969-6.328125 15.765625-6.328125 7.601562 0 11.023437 2.65625 15.769531 6.328125 5.566406 4.304687 12.496094 9.671875 25.566406 9.671875 13.074219 0 20-5.367188 25.570313-9.671875 4.742187-3.671875 8.175781-6.328125 15.773437-6.328125 7.59375 0 11.015625 2.65625 15.761719 6.328125 5.566406 4.304687 12.496094 9.671875 25.558594 9.671875 13.074218 0 20.007812-5.367188 25.578125-9.671875 4.742187-3.671875 8.175781-6.328125 15.773437-6.328125 7.617188 0 11.050782 2.65625 15.800782 6.328125 5.578124 4.3125 12.511718 9.671875 25.59375 9.671875 13.078124 0 20.015624-5.359375 25.589843-9.671875 4.746094-3.671875 8.175781-6.328125 15.792969-6.328125v-16c-13.078125 0-20.007812 5.359375-25.585938 9.671875-4.75 3.671875-8.183593 6.328125-15.796874 6.328125zm0 0"/><path d="m470.414062 377.671875c-4.75 3.671875-8.183593 6.328125-15.796874 6.328125-7.617188 0-11.050782-2.65625-15.800782-6.328125-5.578125-4.3125-12.503906-9.671875-25.59375-9.671875-3.582031 0-6.671875.433594-9.4375 1.105469-30.167968-8.539063-57.792968-22.898438-82.089844-42.777344-20.207031-16.535156-37.289062-36.25-50.765624-58.601563l-13.707032 8.265626c14.433594 23.917968 32.714844 45.015624 54.335938 62.710937 22.027344 18.023437 46.609375 31.761719 73.210937 41.121094-3.488281 2.496093-6.90625 4.175781-12.898437 4.175781-7.589844 0-11.015625-2.65625-15.757813-6.328125-5.570312-4.304687-12.496093-9.671875-25.5625-9.671875-2.703125 0-5.085937.273438-7.3125.671875l-25.980469-13c-44.1875-22.085937-80.699218-56.320313-105.601562-99-10.242188-17.558594-15.65625-37.582031-15.65625-57.910156 0-20.769531 10.992188-40.441407 28.671875-51.328125 3.65625-2.25 7.855469-3.441406 12.152344-3.441406 12.777343.007812 23.175781 10.40625 23.175781 23.183593v.824219h16v-.824219c0-21.601562-17.574219-39.175781-39.175781-39.175781-7.257813 0-14.351563 2.007812-20.535157 5.816406-22.386718 13.777344-36.289062 38.664063-36.289062 64.945313 0 23.148437 6.167969 45.964843 17.832031 65.980469 26.472657 45.378906 65.289063 81.769531 112.265625 105.25l15.070313 7.535156c-.0625.046875-.128907.097656-.183594.144531-4.746094 3.671875-8.175781 6.328125-15.777344 6.328125-7.597656 0-11.023437-2.65625-15.765625-6.328125-5.578125-4.304687-12.496094-9.671875-25.570312-9.671875-13.0625 0-20 5.367188-25.558594 9.671875-4.746094 3.671875-8.175781 6.328125-15.777344 6.328125-7.597656 0-11.023437-2.65625-15.765625-6.328125-5.5625-4.304687-12.488281-9.671875-25.5625-9.671875-13.0625 0-19.992187 5.367188-25.550781 9.671875-4.746094 3.671875-8.167969 6.328125-15.761719 6.328125-7.582031 0-11.007812-2.65625-15.75-6.320312-5.34375-4.144532-12-9.207032-24.089843-9.609376l-10.246094-13.65625c-21.800782-29.070312-33.808594-65.09375-33.808594-101.429687 0-28.191406 6.664062-56.425781 19.273438-81.632813 12.726562-25.464843 30.039062-47.863281 51.453124-66.609374 18.242188-15.949219 41.625-24.742188 65.847657-24.742188h3.425781c55.144531 0 100 44.855469 100 100 0 15.441406-12.558594 28-28 28s-28-12.558594-28-28v-4h-16v4c0 24.265625 19.734375 44 44 44s44-19.734375 44-44c0-63.960938-52.039062-116-116-116h-3.425781c-28.101563 0-55.230469 10.191406-76.382813 28.703125-22.992187 20.113281-41.574218 44.160156-55.230468 71.488281-13.714844 27.425782-20.960938 58.128906-20.960938 88.792969 0 39.777344 13.144531 79.214844 37.007812 111.039063l5.566407 7.425781c-3.839844 1.847656-6.855469 4.152343-9.535157 6.222656-4.734374 3.671875-8.167968 6.328125-15.757812 6.328125-7.585938 0-11-2.648438-15.738281-6.320312-5.558594-4.3125-12.488281-9.679688-25.542969-9.679688v16c7.585938 0 11 2.648438 15.734375 6.320312 5.570313 4.3125 12.488281 9.679688 25.546875 9.679688 13.0625 0 19.992188-5.367188 25.558594-9.671875 4.746094-3.671875 8.160156-6.328125 15.761718-6.328125 7.582032 0 11.007813 2.65625 15.75 6.320312 5.558594 4.3125 12.488282 9.679688 25.542969 9.679688 13.058594 0 19.992188-5.367188 25.554688-9.671875 4.742187-3.671875 8.167969-6.328125 15.757812-6.328125 7.601563 0 11.023438 2.65625 15.769531 6.328125 5.566407 4.304687 12.496094 9.671875 25.558594 9.671875 13.074219 0 20-5.367188 25.570313-9.671875 4.742187-3.671875 8.167969-6.328125 15.765625-6.328125 7.601562 0 11.023437 2.65625 15.769531 6.328125 5.566406 4.304687 12.496094 9.671875 25.566406 9.671875 13.074219 0 20-5.367188 25.570313-9.671875 4.742187-3.671875 8.175781-6.328125 15.773437-6.328125 7.59375 0 11.015625 2.65625 15.761719 6.328125 5.566406 4.304687 12.496094 9.671875 25.558594 9.671875 13.074218 0 20.007812-5.367188 25.578125-9.671875 4.742187-3.671875 8.175781-6.328125 15.773437-6.328125 7.617188 0 11.050782 2.65625 15.800782 6.328125 5.578124 4.3125 12.511718 9.671875 25.59375 9.671875 13.078124 0 20.015624-5.359375 25.589843-9.671875 4.746094-3.671875 8.175781-6.328125 15.792969-6.328125v-16c-13.078125 0-20.007812 5.359375-25.585938 9.671875zm0 0"/><path d="m133.703125 172.976562-12.519531-9.953124c-7.296875 9.175781-13.679688 19.199218-18.984375 29.792968-9.289063 18.597656-14.199219 39.40625-14.199219 60.167969 0 26.015625 8.601562 51.816406 24.207031 72.625l12.59375 16.789063 12.800781-9.589844-12.59375-16.792969c-13.542968-18.070313-21.007812-40.457031-21.007812-63.03125 0-18.296875 4.328125-36.632813 12.511719-53.015625 4.808593-9.601562 10.59375-18.679688 17.191406-26.992188zm0 0"/><path d="m152.871094 152.894531-10.542969-12.03125c-4.238281 3.722657-8.335937 7.671875-12.167969 11.761719l11.671875 10.933594c3.480469-3.695313 7.183594-7.285156 11.039063-10.664063zm0 0"/><path d="m240.648438 243.152344 1.289062 3c1.949219 4.550781 4.03125 9.03125 6.253906 13.457031l14.296875-7.183594c-2.074219-4.128906-4.023437-8.320312-5.847656-12.578125l-1.289063-3zm0 0"/><path d="m368 312h16v16h-16zm0 0"/><path d="m256 16h16v16h-16zm0 0"/><path d="m0 136h16v16h-16zm0 0"/><path d="m16 344h16v16h-16zm0 0"/></svg>