<svg height="496pt" viewBox="-40 0 496 496" width="496pt" xmlns="http://www.w3.org/2000/svg"><g fill="#f0bc5e"><path d="m224.976562 248.160156-.976562-.160156v80h168c-47.039062-41.816406-104.9375-69.488281-167.023438-79.839844zm0 0"/><path d="m129.167969 199.929688c-15.273438 30.359374-32.59375 59.664062-51.824219 87.757812.902344.105469 1.734375.207031 2.65625.3125h15.433594c36.222656 0 70.957031-14.390625 96.566406-40v-80c-14.871094 19.832031-38.089844 31.566406-62.832031 31.929688zm0 0"/><path d="m350.136719 219.289062c-14.679688-31.417968-31.625-61.695312-50.601563-90.671874-1.191406-.203126-2.328125-.425782-3.535156-.617188h-4.222656c-23.53125 0-46.738282 5.480469-67.777344 16v48h.449219c43.40625 0 86.261719 9.320312 125.6875 27.289062zm0 0"/></g><path d="m416 352h-184v-16h171.246094l-17.484375-50.265625c-33.328125-95.824219-85.097657-182.160156-153.761719-256.75v-4.984375c0-13.230469-10.769531-24-24-24s-24 10.769531-24 24v6.800781l-14.183594 46.605469c-27.222656 89.472656-70.328125 172.121094-128.105468 245.648438l-10.175782 12.945312h152.464844v16h-184v8c0 74.992188 61.007812 136 136 136h246.625c18.40625 0 33.375-14.96875 33.375-33.375 0-13.960938-4.800781-27.671875-13.34375-38.625 8.542969-10.953125 13.34375-24.664062 13.34375-38.625zm-16 32h-241.207031c-36.410157 0-72.023438-5.441406-106.386719-16h347.59375zm-29.34375-93.015625 10.097656 29.015625h-148.753906v-266.839844c61.265625 69.878906 108 149.703125 138.65625 237.824219zm-306.417969 29.015625c53.304688-70.839844 93.503907-149.664062 119.761719-234.511719v234.511719zm135.761719-296c0-4.40625 3.585938-8 8-8s8 3.59375 8 8v328h-16zm182.625 456h-246.625c-37.414062 0-70.785156-17.289062-92.808594-44.214844 50.449219 18.695313 103.296875 28.214844 157.472656 28.214844h112.640626v-16h-112.640626c-59.679687 0-117.679687-11.960938-172.488281-35.441406-2.03125-4.152344-3.792969-8.453125-5.34375-12.863282 48.601563 21.144532 101.625 32.304688 154.617188 32.304688h14.550781v-16h-14.550781c-55.066407 0-110.136719-12.632812-159.832031-36.359375-.402344-2.417969-.601563-4.898437-.855469-7.359375 45.261719 18.328125 92.957031 27.71875 142.03125 27.71875h238.792969c-1.945313 5.863281-5.042969 11.320312-9.113282 16h-180.472656v16h180.464844c4.070312 4.679688 7.167968 10.136719 9.109375 16h-69.773438v16h72.054688c-.710938 8.929688-8.121094 16-17.230469 16zm0 0"/></svg>