<svg height="496pt" viewBox="-80 0 496 496" width="496pt" xmlns="http://www.w3.org/2000/svg"><path d="m77.480469 87.449219c5.167969-1.152344 10.785156.246093 14.800781 4.261719 4.015625 4.015624 5.414062 9.640624 4.261719 14.800781 4.472656 2.839843 7.457031 7.800781 7.457031 13.488281 0 5.679688-2.984375 10.648438-7.449219 13.480469.183594.824219.191407 1.671875.25 2.519531h13.261719c21.730469 0 42.578125-8.632812 57.945312-24 15.367188 15.367188 36.207032 24 57.945313 24h14.046875v64c0 21.296875-9.304688 40.375-24 53.558594v34.441406l64 22.855469v-198.855469c0-61.761719-50.238281-112-112-112-49.160156 0-92.105469 31.488281-106.847656 78.34375l-.039063 2.03125c.941407-.175781 1.886719-.375 2.886719-.375 5.679688 0 10.648438 2.984375 13.480469 7.449219zm0 0" fill="#f0bc5e"/><path d="m120 428c0-7.3125.894531-14.609375 2.679688-21.703125 3.527343-14.160156 5.320312-28.722656 5.320312-43.28125v-93.839844c-23.871094-13.855469-40-39.640625-40-69.175781v-40.199219c-2.246094.6875-4.558594 1.144531-6.9375 1.144531-.03125 0-.070312 0-.101562 0-4.457032 4.488282-10.503907 7.054688-16.960938 7.054688-2.785156 0-5.464844-.566406-8-1.472656v141.03125c0 19.890625 3.753906 39.335937 11.136719 57.824218 3.230469 8.066407 4.863281 16.554688 4.863281 25.257813 0 5.542969-.6875 11.09375-2.03125 16.496094l-4.878906 19.519531c-.722656 2.910156-1.089844 5.878906-1.089844 8.847656 0 15.703125 10.007812 29.601563 24.910156 34.566406l42.378906 14.128907-8.617187-34.496094c-1.777344-7.09375-2.671875-14.390625-2.671875-21.703125zm0 0" fill="#f0bc5e"/><path d="m216 160c0 4.417969-3.582031 8-8 8s-8-3.582031-8-8 3.582031-8 8-8 8 3.582031 8 8zm0 0"/><path d="m136 160c0 4.417969-3.582031 8-8 8s-8-3.582031-8-8 3.582031-8 8-8 8 3.582031 8 8zm0 0"/><path d="m168 224c-8.824219 0-16-7.175781-16-16h-16c0 17.648438 14.351562 32 32 32s32-14.351562 32-32h-16c0 8.824219-7.175781 16-16 16zm0 0"/><path d="m56 112h16v16h-16zm0 0"/><path d="m298.832031 309.097656-74.832031-26.738281v-25.328125c14.792969-14.527344 24-34.71875 24-57.03125v-88h-16v16h-6.054688c-19.753906 0-38.320312-7.6875-52.289062-21.65625l-5.65625-5.65625-5.65625 5.65625c-13.847656 13.855469-32.230469 21.511719-51.808594 21.632812.90625-2.535156 1.464844-5.199218 1.464844-7.976562 0-6.457031-2.566406-12.503906-7.054688-16.960938.023438-6.320312-2.441406-12.414062-7-16.976562-4.546874-4.542969-10.601562-7.007812-16.882812-7.007812-.03125 0-.070312 0-.101562 0-8.90625-8.964844-25.015626-8.964844-33.921876 0-.03125 0-.0625 0-.101562 0-6.28125 0-12.335938 2.464843-16.875 7.007812-4.566406 4.5625-7.03125 10.65625-7.007812 16.976562-4.488282 4.457032-7.054688 10.503907-7.054688 16.960938s2.566406 12.503906 7.054688 16.960938c-.023438 6.320312 2.441406 12.414062 7 16.976562 4.546874 4.542969 10.601562 7.007812 16.882812 7.007812h.101562c4.457032 4.488282 10.503907 7.054688 16.960938 7.054688s12.503906-2.566406 16.960938-7.054688h.101562c2.378906 0 4.699219-.464843 6.9375-1.144531v40.199219c0 44.113281 35.886719 80 80 80 14.574219 0 28.214844-3.984375 40-10.824219v17.65625c-1.367188 4.152344-9.769531 25.167969-40 25.167969-30.222656 0-38.609375-20.921875-40-25.175781v27.238281c5 4.328125 11.207031 8.167969 18.929688 10.699219-1.808594 3.367187-2.929688 7.160156-2.929688 11.238281 0 13.230469 10.769531 24 24 24s24-10.769531 24-24c0-4.078125-1.121094-7.871094-2.929688-11.238281 16.699219-5.472657 26.609376-16.929688 31.515626-26.625l35.414062 12.648437v57.214844h-1.351562c-30.375 0-60.222657 7.847656-86.648438 22.742188-12.726562-7.175782-26.289062-12.621094-40.367188-16.445313-.34375 5.390625-1 10.75-1.824218 16.09375 13.335937 3.839844 26.128906 9.304687 38.078125 16.472656l4.113281 2.464844 4.121094-2.472656c24.917968-14.953125 53.464844-22.855469 82.527344-22.855469h6.039062l5.984375 5.984375c8.59375 8.589844 13.328125 20.023437 13.328125 32.183594 0 9.792969-3.230469 19.480469-9.105469 27.304687-6.78125 9.046875-11.246093 19.503906-13.390625 30.527344h-127.265625l1.050781 4.191406-12.585937-4.191406h-40.207031c-2.144532-11.03125-6.609375-21.488281-13.390625-30.535156-5.875-7.824219-9.105469-17.511719-9.105469-27.296875 0-12.160157 4.734375-23.582031 13.328125-32.175781l2.519531-2.519532c-.351562-7.59375-1.878906-15.007812-4.71875-22.082031-1.183594-2.992187-2.128906-6.039063-3.128906-9.0625v16.359375l-5.984375 5.984375c-11.617187 11.609375-18.015625 27.054687-18.015625 43.496094 0 13.222656 4.367188 26.335937 12.304688 36.894531 4.695312 6.273438 8.023437 13.402344 9.902343 20.9375h-46.207031v-118.167969c0-16.855469 10.664062-32 26.542969-37.671875l14-5c-.277344-3.855468-.542969-7.710937-.542969-11.601562v-5.191406l-18.832031 6.730468c-22.230469 7.933594-37.167969 29.117188-37.167969 52.734375v134.167969h336v-134.167969c0-23.617187-14.9375-44.800781-37.167969-52.734375zm-206.574219-182.363281-4.730468 3.019531 1.214844 5.46875c.601562 2.714844-.183594 5.480469-2.117188 7.410156-1.929688 1.925782-4.664062 2.726563-7.394531 2.121094l-5.488281-1.226562-3.015626 4.746094c-2.972656 4.6875-10.488281 4.6875-13.460937 0l-3.019531-4.746094-5.484375 1.226562c-2.714844.597656-5.464844-.1875-7.402344-2.121094-1.917969-1.929687-2.710937-4.695312-2.113281-7.410156l1.21875-5.46875-4.730469-3.019531c-2.335937-1.496094-3.734375-4.007813-3.734375-6.734375s1.398438-5.238281 3.742188-6.734375l4.730468-3.019531-1.214844-5.46875c-.601562-2.714844.183594-5.480469 2.117188-7.410156 1.929688-1.917969 4.6875-2.710938 7.394531-2.121094l5.488281 1.226562 3.015626-4.746094c2.972656-4.6875 10.488281-4.6875 13.460937 0l3.019531 4.746094 5.484375-1.226562c2.722657-.597656 5.472657.195312 7.402344 2.121094 1.917969 1.929687 2.710937 4.695312 2.113281 7.410156l-1.21875 5.46875 4.730469 3.019531c2.335937 1.496094 3.734375 4.007813 3.734375 6.734375s-1.398438 5.238281-3.742188 6.734375zm11.742188 73.265625v-56h6.054688c21.449218 0 41.746093-7.457031 57.945312-21.144531 16.191406 13.6875 36.496094 21.144531 57.945312 21.144531h6.054688v56c0 35.289062-28.710938 64-64 64s-64-28.710938-64-64zm64 144c-4.40625 0-8-3.585938-8-8s3.59375-8 8-8 8 3.585938 8 8-3.59375 8-8 8zm152 136h-46.207031c1.878906-7.535156 5.207031-14.664062 9.902343-20.929688 7.9375-10.574218 12.304688-23.679687 12.304688-36.902343 0-16.441407-6.398438-31.878907-18.015625-43.496094l-5.984375-5.984375v-56.191406l21.457031 7.664062c15.878907 5.671875 26.542969 20.808594 26.542969 37.671875zm0 0"/></svg>