<svg height="496pt" viewBox="0 0 496 496" width="496pt" xmlns="http://www.w3.org/2000/svg"><path d="m448 0h-80v80h-96v16h96v320h80c17.648438 0 32 14.351562 32 32s-14.351562 32-32 32h-432v-384h96v-16h-112v416h448c26.472656 0 48-21.527344 48-48v-400c0-26.472656-21.527344-48-48-48zm32 412.257812c-8.496094-7.617187-19.71875-12.257812-32-12.257812h-64v-384h64c17.648438 0 32 14.351562 32 32zm0 0"/><path d="m275.871094 191.238281c2.769531 3.273438 7.394531 8.761719 16.113281 8.761719 8.710937 0 13.335937-5.480469 16.105469-8.761719 2.496094-2.957031 2.863281-3.078125 3.878906-3.078125 1.023438 0 1.390625.121094 3.894531 3.078125 2.769531 3.28125 7.402344 8.761719 16.121094 8.761719 8.710937 0 13.34375-5.480469 16.121094-8.753906 2.503906-2.957032 2.871093-3.078125 3.894531-3.078125v-16c-8.710938 0-13.34375 5.480469-16.121094 8.753906-2.503906 2.957031-2.871094 3.078125-3.894531 3.078125s-1.398437-.121094-3.90625-3.089844c-2.765625-3.269531-7.398437-8.75-16.117187-8.75-8.714844 0-13.335938 5.480469-16.105469 8.761719-2.496094 2.957031-2.855469 3.078125-3.871094 3.078125s-1.382813-.121094-3.878906-3.078125c-2.769531-3.28125-7.394531-8.761719-16.105469-8.761719v16c1.007812.007813 1.375.128906 3.871094 3.078125zm0 0"/><path d="m207.128906 464h-21.65625c-8.960937 0-17.023437-5.320312-20.550781-13.550781l-18-42.007813c-.648437-1.503906-1.832031-2.699218-3.347656-3.34375l-42.015625-18.007812c-8.238282-3.53125-13.558594-11.59375-13.558594-20.5625v-33.742188c0-1.371094-.457031-2.722656-1.273438-3.816406l-18.253906-24.34375c-2.886718-3.839844-4.472656-8.609375-4.472656-13.410156 0-10.277344 6.96875-19.199219 16.945312-21.695313l10.238282-2.558593c2.832031-.714844 4.816406-3.25 4.816406-6.175782v-8.441406c0-1.253906-.367188-2.480469-1.070312-3.527344l-27.175782-40.761718c-2.457031-3.695313-3.753906-7.976563-3.753906-12.398438v-21.296875c0-12.328125 10.03125-22.359375 22.359375-22.359375h13.832031c3.878906 0 7.710938 1.015625 11.089844 2.945312l52.695312 30.109376-7.9375 13.890624-52.6875-30.113281c-.96875-.542969-2.054687-.832031-3.167968-.832031h-13.832032c-3.503906 0-6.351562 2.847656-6.351562 6.359375v21.296875c0 1.253906.367188 2.480469 1.070312 3.527344l27.175782 40.761718c2.457031 3.695313 3.753906 7.976563 3.753906 12.398438v8.441406c0 10.277344-6.96875 19.199219-16.945312 21.695313l-10.238282 2.558593c-2.832031.714844-4.816406 3.25-4.816406 6.175782 0 1.371094.457031 2.722656 1.273438 3.816406l18.253906 24.34375c2.886718 3.839844 4.472656 8.609375 4.472656 13.410156v33.742188c0 2.542968 1.511719 4.839844 3.847656 5.839844l42.015625 18.007812c5.304688 2.273438 9.472657 6.441406 11.746094 11.746094l18.007813 42.015625c1.007812 2.351562 3.304687 3.863281 5.855468 3.863281h21.65625c2.421875 0 4.605469-1.34375 5.6875-3.511719l8.054688-16.128906c3.816406-7.625 11.480468-12.359375 20-12.359375h9.175781c5.976563 0 11.59375 2.328125 15.816406 6.550781l7.585938 7.585938c1.199219 1.199219 2.796875 1.863281 4.496093 1.863281h19.6875c3.519532 0 6.367188-2.847656 6.367188-6.359375v-36.601563c0-5.0625 1.742188-10.023437 4.902344-13.976562l25.707031-32.125c.894531-1.121094 1.390625-2.539062 1.390625-3.976562v-36.601563c0-3.511719-2.847656-6.359375-6.359375-6.359375h-17.503906c-7.816407 0-15.160157-4.160156-19.175781-10.855469l-18.90625-31.503906c-.261719-.449219-.589844-.855469-.957032-1.226563l-54.753906-54.75 11.3125-11.3125 54.75 54.753907c1.289062 1.285156 2.425781 2.734375 3.363281 4.300781l18.902344 31.515625c1.152344 1.894531 3.238281 3.078125 5.464844 3.078125h17.503906c12.328125 0 22.359375 10.03125 22.359375 22.359375v36.601563c0 5.0625-1.742188 10.023437-4.902344 13.976562l-25.707031 32.125c-.894531 1.121094-1.390625 2.539062-1.390625 3.976562v36.601563c0 12.328125-10.03125 22.359375-22.359375 22.359375h-19.6875c-5.976563 0-11.59375-2.328125-15.816406-6.550781l-7.585938-7.585938c-1.199219-1.199219-2.796875-1.863281-4.496093-1.863281h-9.175782c-2.421875 0-4.605468 1.34375-5.6875 3.511719l-8.054687 16.128906c-3.824219 7.625-11.488281 12.359375-20.007813 12.359375zm0 0"/><path d="m192 240c-7.726562 0-15-4.121094-18.976562-10.742188l-56.488282-94.136718c-8.199218-13.664063-12.535156-29.320313-12.535156-45.28125v-1.839844c0-48.519531 39.480469-88 88-88s88 39.480469 88 88v1.839844c0 15.953125-4.335938 31.609375-12.535156 45.273437l-56.488282 94.144531c-3.976562 6.621094-11.25 10.742188-18.976562 10.742188zm0 0" fill="#f0bc5e"/><path d="m192 144c-30.878906 0-56-25.121094-56-56s25.121094-56 56-56 56 25.121094 56 56-25.121094 56-56 56zm0-96c-22.054688 0-40 17.945312-40 40s17.945312 40 40 40 40-17.945312 40-40-17.945312-40-40-40zm0 0"/><path d="m91.984375 464c-8.71875 0-13.351563-5.480469-16.121094-8.753906-2.503906-2.957032-2.871093-3.078125-3.894531-3.078125-1.015625 0-1.382812.121093-3.878906 3.078125-2.769532 3.273437-7.402344 8.753906-16.105469 8.753906-8.710937 0-13.335937-5.488281-16.105469-8.761719-2.503906-2.949219-2.871094-3.070312-3.878906-3.070312v-16c8.710938 0 13.335938 5.480469 16.105469 8.761719 2.496093 2.949218 2.863281 3.070312 3.878906 3.070312s1.382813-.121094 3.878906-3.078125c2.769531-3.28125 7.394531-8.761719 16.105469-8.761719s13.34375 5.480469 16.121094 8.75c2.496094 2.96875 2.871094 3.089844 3.894531 3.089844s1.390625-.121094 3.894531-3.078125c2.769532-3.273437 7.402344-8.753906 16.121094-8.753906v16c-1.023438 0-1.390625.121093-3.894531 3.078125-2.769531 3.273437-7.410157 8.753906-16.121094 8.753906zm0 0"/><path d="m411.984375 459.832031c-8.71875 0-13.351563-5.480469-16.121094-8.753906-2.503906-2.957031-2.871093-3.078125-3.894531-3.078125-1.015625 0-1.382812.121094-3.878906 3.078125-2.769532 3.28125-7.394532 8.761719-16.105469 8.761719s-13.335937-5.488282-16.105469-8.761719c-2.503906-2.957031-2.871094-3.078125-3.878906-3.078125v-16c8.710938 0 13.335938 5.480469 16.105469 8.761719 2.496093 2.957031 2.863281 3.078125 3.878906 3.078125s1.382813-.121094 3.878906-3.078125c2.761719-3.28125 7.394531-8.761719 16.105469-8.761719s13.34375 5.480469 16.121094 8.753906c2.503906 2.964844 2.871094 3.085938 3.902344 3.085938 1.023437 0 1.390624-.121094 3.894531-3.078125 2.769531-3.28125 7.402343-8.761719 16.113281-8.761719v16c-1.023438 0-1.390625.121094-3.894531 3.078125-2.769531 3.273437-7.410157 8.753906-16.121094 8.753906zm0 0"/></svg>