<svg height="496pt" viewBox="0 0 496 496" width="496pt" xmlns="http://www.w3.org/2000/svg"><path d="m320.328125 168.328125c-24.710937-24.710937-51.425781-47.105469-79.792969-67.015625l-.535156 2.6875v7.433594c0 38.613281 15.039062 74.917968 42.34375 102.222656s63.609375 42.34375 102.222656 42.34375h7.433594l5.921875-.496094c-22.289063-28.617187-46.304687-55.886718-72-81.582031zm0 0" fill="#f0bc5e"/><path d="m256 392v-7.433594c0-38.613281-15.039062-74.917968-42.34375-102.222656s-63.609375-42.34375-102.222656-42.34375h-10.480469c20 28.566406 42.511719 55.472656 67.375 80.328125l5.59375 5.59375c25.679687 25.679687 52.933594 49.679687 81.542969 71.957031zm0 0" fill="#f0bc5e"/><path d="m360 408h16v16h-16zm0 0"/><path d="m408 360h16v16h-16zm0 0"/><path d="m461.457031 333.214844c-36.578125-59.855469-80.273437-115.359375-129.871093-164.949219l-5.59375-5.59375c-79.785157-79.777344-179.953126-135.75-289.679688-161.863281-2.234375-.535156-4.527344-.808594-6.832031-.808594-16.257813 0-29.480469 13.222656-29.480469 29.480469 0 2.304687.273438 4.597656.808594 6.824219 26.121094 109.734374 82.09375 209.902343 161.863281 289.679687l5.59375 5.589844c49.589844 49.601562 105.09375 93.296875 164.949219 129.875 36.976562 22.605469 79.441406 34.550781 122.785156 34.550781h8v-8c0-10.0625-1.734375-19.863281-5.054688-29.054688 9.191407 3.320313 18.992188 5.054688 29.054688 5.054688h8v-8c0-43.34375-11.945312-85.808594-34.542969-122.785156zm-22.425781 94.503906-49.375-49.375-11.3125 11.3125 49.375 49.375c11.136719 11.136719 18.007812 25.402344 19.808594 40.808594-37.449219-1.449219-73.902344-12.449219-105.960938-32.039063-58.78125-35.921875-113.277344-78.832031-161.980468-127.527343l-5.59375-5.59375c-38.945313-38.945313-72.054688-82.878907-98.609376-130.480469 32.855469.992187 63.625 14.121093 86.96875 37.464843 12.023438 12.023438 21.367188 26.175782 27.785157 41.671876 7.953125 5.183593 15.449219 11.183593 22.375 17.96875-5.960938-26.921876-19.3125-51.425782-38.847657-70.960938-27.3125-27.304688-63.617187-42.34375-102.230468-42.34375h-4.738282c-22.121093-42.710938-39.078124-88.136719-50.328124-135.40625-.238282-1.019531-.367188-2.066406-.367188-3.113281 0-.679688.105469-1.320313.199219-1.96875l322.144531 322.144531 11.3125-11.3125-322.144531-322.144531c.648437-.09375 1.289062-.199219 1.96875-.199219 1.054687 0 2.105469.128906 3.128906.367188 47.253906 11.25 92.6875 28.207031 135.390625 50.328124v4.738282c0 38.613281 15.039062 74.917968 42.34375 102.222656 19.527344 19.527344 44.03125 32.886719 70.953125 38.847656-6.785156-6.929687-12.785156-14.425781-17.96875-22.375-15.496094-6.417968-29.65625-15.769531-41.671875-27.785156-23.34375-23.34375-36.472656-54.113281-37.464844-86.96875 47.601563 26.554688 91.535156 59.664062 130.480469 98.609375l5.59375 5.589844c48.703125 48.707031 91.605469 103.203125 127.527344 161.984375 19.589843 32.058594 30.589843 68.511718 32.039062 105.960937-15.398437-1.792969-29.664062-8.671875-40.800781-19.800781zm0 0"/><path d="m392 392h-57.375c-6.410156 0-12.441406-2.496094-16.96875-7.03125-9.359375-9.359375-9.359375-24.578125 0-33.9375 4.527344-4.535156 10.558594-7.03125 16.96875-7.03125h9.375v-9.375c0-6.410156 2.496094-12.441406 7.03125-16.96875 9.359375-9.359375 24.578125-9.359375 33.9375 0 4.535156 4.527344 7.03125 10.558594 7.03125 16.96875zm0 0" fill="#f0bc5e"/></svg>