<svg height="496pt" viewBox="-2 0 496 496" width="496pt" xmlns="http://www.w3.org/2000/svg"><path d="m484.9375 444.6875-210.34375-210.34375-43.3125 43.3125 210.34375 210.34375c5.160156 5.160156 12.015625 8 19.3125 8 7.292969 0 14.160156-2.839844 19.308594-8l4.691406-4.6875c5.160156-5.160156 8-12.015625 8-19.3125s-2.839844-14.160156-8-19.3125zm0 0" fill="#f0bc5e"/><path d="m100.9375 152 48-48 8.191406 8.191406 6.4375-25.726562c.90625-3.640625 1.371094-7.394532 1.371094-11.136719 0-19.800781-12.617188-37.304687-31.402344-43.550781-14.289062-4.769532-28.359375-10.59375-41.832031-17.335938l-22.765625-11.378906v12.050781c-14.65625-9.824219-31.890625-15.113281-49.9375-15.113281h-17.160156l8.65625 25.984375c1.617187 4.847656 2.441406 9.902344 2.441406 15.023437 0 10.871094 2.910156 21.566407 8.167969 30.992188h-21.105469l11.375 22.777344c6.746094 13.46875 12.570312 27.535156 17.328125 41.832031 6.257813 18.773437 23.761719 31.390625 43.5625 31.390625 3.742187 0 7.496094-.464844 11.140625-1.375l25.730469-6.433594zm0 0" fill="#f0bc5e"/><path d="m296.246094 224-24-24 6.554687-6.550781-63.921875-118.707031-17.941406 17.945312v35.3125h-12.691406l-35.308594-35.3125-8.9375 8.9375c-2.640625-19.34375-11.367188-37.242188-25.40625-51.28125l-11.3125 11.3125c13.964844 13.96875 21.65625 32.527344 21.65625 52.28125v2.75l-11.3125 11.3125h-2.746094c-19.75 0-38.320312-7.6875-52.285156-21.65625l-11.3125 11.3125c14.039062 14.039062 31.933594 22.769531 51.277344 25.40625l-8.933594 8.9375 35.3125 35.3125v12.6875h-35.3125l-17.953125 17.945312 118.710937 63.917969 6.554688-6.550781 24 24zm-84.894532 14.265625-27.582031-13.792969 13.167969-13.160156 20.6875 20.6875zm-49.726562-62.265625 24 24-16.9375 16.9375-27.75-13.882812v-27.054688zm67.3125 44.6875-20.691406-20.6875 17.84375-17.839844 16.550781 24.824219zm25.238281-25.246094-16.550781-24.824218 6.960938-6.960938 14.476562 26.894531zm-17.503906-46.488281-8.085937 8.085937-15.648438-23.464843v-28.703125zm-36.015625-4.953125 16.382812 24.585938-20.101562 20.101562-24-24v-20.6875zm-88.410156 8 36.691406-36.6875 12.6875 12.6875h-4.6875v32h-32v4.6875zm18.800781 64 25.722656 12.855469-10.875 10.871093-44.085937-23.726562zm56.441406 46.136719-26.886719-14.480469 11.246094-11.25 27.585938 13.792969zm73.449219-50.824219 12.6875 12.6875-52.6875 52.6875-12.691406-12.6875zm0 0"/></svg>