<svg height="488pt" viewBox="0 -68 488 488" width="488pt" xmlns="http://www.w3.org/2000/svg"><g fill="#f0bc5e"><path d="m409.601562 195.199219-7.890624-5.917969-57.710938 10.71875v23.296875c0 18.046875 8.769531 35.078125 23.457031 45.566406l32.742188 23.382813c3.425781 2.457031 7.464843 3.753906 11.679687 3.753906 11.097656 0 20.121094-9.023438 20.121094-20.121094v-35.878906c0-17.527344-8.375-34.28125-22.398438-44.800781zm0 0"/><path d="m234.152344 242.871094c-11.703125-14.039063-18.152344-31.832032-18.152344-50.109375v-16.761719l-46.246094-21-14.9375 18.671875c-12.136718 15.160156-18.816406 34.214844-18.816406 53.648437 0 14.910157 3.910156 29.640626 11.3125 42.601563 15.007812 26.253906 35.085938 48.484375 59.695312 66.054687l17.183594 12.269532c3.433594 2.457031 7.472656 3.753906 11.6875 3.753906 11.097656 0 20.121094-9.023438 20.121094-20.121094v-28.640625c0-22.015625-7.761719-43.445312-21.847656-60.367187zm0 0"/><path d="m107.574219 80.839844-21.605469-10.808594c-7.914062-3.941406-16.761719-6.03125-25.585938-6.03125-15.0625 0-29.808593 6.113281-40.453124 16.761719l-10.808594 10.804687c-5.882813 5.882813-9.121094 13.699219-9.121094 22.019532 0 5.636718 1.527344 11.175781 4.441406 16.03125l3.269532 5.453124c12.183593 20.3125 34.464843 32.929688 58.160156 32.929688 10.480468 0 20.96875-2.480469 30.335937-7.167969l14.480469-7.230469c2.097656-1.050781 4.441406-1.601562 6.777344-1.601562h34.535156v-16zm0 0"/></g><path d="m485.246094 160.921875-20.078125-36.816406c-10.464844-19.183594-23.679688-36.859375-38.96875-52.488281l.058593-.074219-.515624-.40625c-10.445313-10.625-21.839844-20.328125-34.078126-28.800781-40.007812-27.695313-86.878906-42.335938-135.550781-42.335938-49 0-96.464843 10.28125-141.074219 30.550781l-6.824218 3.105469c-12.277344 5.589844-20.214844 17.917969-20.214844 31.40625 0 5.914062 1.527344 11.761719 4.433594 16.90625 43.726562 77.742188 126.292968 126.03125 215.488281 126.03125 50.941406 0 102.230469-4.238281 152.4375-12.617188l8.832031-1.472656c10.898438-1.820312 18.808594-11.15625 18.808594-22.207031 0-3.757813-.953125-7.488281-2.753906-10.78125zm-26.09375-14.425781c-23.65625 4.839844-47.59375 8.375-71.65625 10.609375l-27.496094-54.992188v-7.792969c0-7.105468 2.761719-13.777343 7.785156-18.792968 9.582032-9.582032 24.800782-10.449219 35.375-1.953125l11.824219 9.457031c14.167969 14.527344 26.421875 30.929688 36.136719 48.738281zm-222.152344-112.71875c1.457031 7.261718-.808594 14.726562-6.046875 19.957031l-3.554687 3.5625-65.992188 29.328125c-12.300781-13.640625-22.902344-28.800781-31.476562-45 30.015624-12.671875 61.292968-20.730469 93.46875-23.953125 6.921874 2.742187 12.121093 8.726563 13.601562 16.105469zm-3.296875 38.222656h5.328125c8.671875 0 17.167969 3.519531 23.3125 9.65625 6.222656 6.222656 9.65625 14.503906 9.65625 23.3125v5.144531l-18.710938 37.414063c-22.402343-7.800782-43.59375-19.085938-62.496093-33.632813-6.097657-4.6875-11.921875-9.742187-17.503907-15.046875zm52.503906 45.480469 7.273438-4.847657c15.054687-10.046874 35.253906-11.3125 51.488281-3.199218l1.0625.535156 24.257812 48.511719c-14.640624.96875-29.304687 1.519531-43.960937 1.519531-19.464844 0-38.800781-2.71875-57.503906-7.753906zm-30.085937-101.480469c43.640625 0 85.671875 12.742188 122.023437 36.6875-7.960937 1.609375-15.542969 5.402344-21.679687 11.535156-7.433594 7.433594-11.777344 17.121094-12.394532 27.511719-18.664062-6.453125-39.796874-4.285156-56.636718 5.792969-1.554688-10.253906-6.3125-19.710938-13.785156-27.175782-6.984376-6.984374-15.703126-11.589843-25.183594-13.441406 4.472656-7.863281 6.03125-17.15625 4.207031-26.269531-1.046875-5.265625-3.207031-10.128906-6.191406-14.375 3.214843-.105469 6.414062-.265625 9.640625-.265625zm210.4375 162.136719-8.832032 1.472656c-49.335937 8.222656-99.734374 12.390625-149.804687 12.390625-83.425781 0-160.648437-45.167969-201.546875-117.871094-1.550781-2.761718-2.375-5.898437-2.375-9.066406 0-7.230469 4.257812-13.839844 10.839844-16.839844l.375-.167968c15.9375 30.464843 38.578125 57.578124 65.824218 78.539062 41.425782 31.863281 93.015626 49.40625 145.289063 49.40625 47.3125 0 94.6875-5.03125 140.832031-14.824219l4.039063 7.410157c.519531.949218.800781 2.03125.800781 3.117187 0 3.191406-2.296875 5.898437-5.441406 6.433594zm0 0"/><path d="m56 96h16v16h-16zm0 0"/></svg>