<svg height="496pt" viewBox="0 0 496 496" width="496pt" xmlns="http://www.w3.org/2000/svg"><path d="m144 424c13.230469 0 24-10.769531 24-24v-96c0-4.414062 3.585938-8 8-8s8 3.585938 8 8v48c0 13.230469 10.769531 24 24 24s24-10.769531 24-24v-60c0-6.617188 5.382812-12 12-12 15.441406 0 28-12.558594 28-28v-52l-38.625 38.625c-6.007812 6.007812-14.144531 9.375-22.632812 9.375h-45.078126c-13.089843 0-24.847656 7.96875-29.710937 20.113281l-15.953125 39.886719v92c0 13.230469 10.769531 24 24 24zm0 0" fill="#f0bc5e"/><path d="m366.144531 203.953125c-5.28125-16.722656-20.609375-27.953125-38.144531-27.953125h-26.742188c-10.691406 0-20.738281 4.160156-28.289062 11.710938l-45.25 45.257812c-4.535156 4.535156-10.558594 7.03125-16.976562 7.03125h-45.078126c-16.457031 0-31.03125 9.871094-37.144531 25.144531l-85.933593 214.855469h-10.585938v16h432v-16h-10.6875zm-222.761719 67.136719c3.664063-9.167969 12.410157-15.089844 22.28125-15.089844h45.078126c10.691406 0 20.738281-4.160156 28.289062-11.710938l45.25-45.257812c2.375-2.375 5.167969-4.152344 8.199219-5.335938l19.519531 32.519532v106.472656l-24 24v48l-13.65625 13.65625 11.3125 11.3125 18.34375-18.34375v-48l16-16 36.6875 36.6875h27.3125v-16h-20.6875l-35.3125-35.3125v-110.902344l-17.871094-29.785156h17.871094c10.519531 0 19.71875 6.734375 22.886719 16.777344l85.65625 271.222656h-241.230469l20.6875-20.6875v-15.3125l28.800781-21.601562-9.601562-12.796876-19.199219 14.398438v-24h-16v52.6875l-27.3125 27.3125h-112.871094zm0 0"/><path d="m246.792969 86.144531c5.757812 3.847657 9.207031 10.28125 9.207031 17.207031 0 7.410157-3.992188 14.289063-10.425781 17.960938l-27.085938 15.488281c-11.398437 6.511719-18.488281 18.710938-18.488281 31.847657v6.664062c0 7.261719 2.136719 14.304688 6.167969 20.351562l13.3125-8.871093c-2.28125-3.417969-3.480469-7.386719-3.480469-11.480469v-6.664062c0-7.410157 3.992188-14.289063 10.425781-17.960938l27.09375-15.488281c11.390625-6.511719 18.480469-18.710938 18.480469-31.847657 0-12.289062-6.113281-23.695312-16.335938-30.519531zm0 0"/><path d="m192 224v-16c-17.648438 0-32-14.351562-32-32s14.351562-32 32-32v-16c-26.472656 0-48 21.527344-48 48s21.527344 48 48 48zm0 0"/><path d="m336 48c0-26.472656-21.527344-48-48-48v16c17.648438 0 32 14.351562 32 32s-14.351562 32-32 32v16c26.472656 0 48-21.527344 48-48zm0 0"/><path d="m312 160h16c0-22.054688-17.945312-40-40-40v16c13.230469 0 24 10.769531 24 24zm0 0"/><path d="m205.328125 89.617188c-3.488281-5.265626-5.328125-11.351563-5.328125-17.617188 0-17.648438 14.351562-32 32-32 6.265625 0 12.351562 1.839844 17.617188 5.328125l8.832031-13.34375c-7.890625-5.222656-17.035157-7.984375-26.449219-7.984375-26.472656 0-48 21.527344-48 48 0 9.414062 2.761719 18.558594 7.984375 26.457031zm0 0"/><path d="m0 480h16v16h-16zm0 0"/><path d="m480 480h16v16h-16zm0 0"/></svg>